<!-- Generated by IcoMoon.io -->
<svg version="1.1" xmlns="http://www.w3.org/2000/svg" width="32" height="32" viewBox="0 0 32 32">
<path d="M15.998 1.413c8.057 0 14.588 6.531 14.588 14.588s-6.531 14.588-14.588 14.588c-8.057 0-14.588-6.531-14.588-14.588 0-0.001 0-0.001 0-0.002v0c0.001-8.056 6.532-14.587 14.588-14.587v0zM15.998 0c-8.836 0.001-15.998 7.164-15.998 16s7.163 16 16 16 16-7.163 16-16v0c-0.011-8.833-7.169-15.99-16-16h-0.001zM19.010 25.359c0-0 0-0.001 0-0.002 0-1.633-1.324-2.956-2.956-2.956s-2.956 1.324-2.956 2.956c0 1.633 1.324 2.956 2.956 2.956v0c0.001 0 0.002 0 0.003 0 1.631 0 2.953-1.322 2.953-2.953 0-0.001 0-0.001 0-0.002v0zM18.894 6.864v0c0.007-0.067 0.012-0.144 0.012-0.223v-0c0-1.633-1.324-2.956-2.956-2.956s-2.956 1.324-2.956 2.956v0c0 0.077 0 0.151 0.011 0.223h-0.015l1.49 12.287c0.094 0.78 0.752 1.38 1.55 1.38 0.782 0 1.43-0.575 1.543-1.326l0.001-0.009 1.291-12.219c0.006-0.019 0.009-0.041 0.009-0.064 0-0 0-0 0-0.001v0z"></path>
</svg>
