<!-- Generated by IcoMoon.io -->
<svg version="1.1" xmlns="http://www.w3.org/2000/svg" width="32" height="32" viewBox="0 0 32 32">
<path d="M15.998 0c-8.836 0.001-15.998 7.164-15.998 16s7.163 16 16 16 16-7.163 16-16v0c-0.011-8.833-7.169-15.99-16-16h-0.001zM12.988 6.641c0-1.633 1.324-2.956 2.956-2.956s2.956 1.324 2.956 2.956v0c-0 0.079-0.005 0.156-0.013 0.232l0.001-0.010v0.050c0 0 0 0 0 0.001 0 0.023-0.003 0.045-0.009 0.066l0-0.002-1.291 12.219c-0.114 0.759-0.762 1.334-1.544 1.334-0.798 0-1.456-0.599-1.55-1.372l-0.001-0.007-1.504-12.288h0.011c-0.006-0.074-0.011-0.146-0.011-0.223zM16.053 28.315c-1.631-0.001-2.953-1.323-2.953-2.955s1.323-2.955 2.955-2.955 2.955 1.323 2.955 2.955v0c-0.002 1.631-1.324 2.952-2.955 2.953h-0z"></path>
</svg>
