<!-- Generated by IcoMoon.io -->
<svg version="1.1" xmlns="http://www.w3.org/2000/svg" width="32" height="32" viewBox="0 0 32 32">
<path d="M19.902 28.098c0-2.116-1.716-3.832-3.832-3.832s-3.832 1.716-3.832 3.832c0 2.116 1.716 3.832 3.832 3.832v0c0.001 0 0.003 0 0.004 0 2.114 0 3.828-1.714 3.828-3.828 0-0.001 0-0.003 0-0.004v0zM19.752 4.117v0c0.010-0.086 0.015-0.187 0.016-0.288v-0c0-2.118-1.717-3.835-3.835-3.835s-3.835 1.717-3.835 3.835v0c0 0.099 0 0.195 0.016 0.289h-0.016l1.932 15.93c0.109 1.024 0.968 1.815 2.013 1.815 1.026 0 1.874-0.764 2.006-1.754l0.001-0.010 1.674-15.838c0.008-0.022 0.012-0.048 0.012-0.075 0-0.003-0-0.006-0-0.009v0z"></path>
</svg>
