<!-- Generated by IcoMoon.io -->
<svg version="1.1" xmlns="http://www.w3.org/2000/svg" width="32" height="32" viewBox="0 0 32 32">
<path d="M16 0c-8.837 0-16 7.163-16 16s7.163 16 16 16c8.837 0 16-7.163 16-16v0c0-8.837-7.163-16-16-16v0zM27.557 17.611l-8.266 8.266c-0.37 0.362-0.876 0.585-1.435 0.585-1.133 0-2.052-0.919-2.052-2.052 0-0.562 0.226-1.072 0.592-1.442l4.91-4.908h-15.539c-0.007 0-0.015 0-0.023 0-0.812 0-1.514-0.473-1.844-1.159l-0.005-0.012c-0.127-0.257-0.201-0.559-0.201-0.879 0-0.205 0.031-0.404 0.088-0.591l-0.004 0.014c0.153-0.477 0.458-0.869 0.856-1.13l0.008-0.005c0.197-0.129 0.427-0.227 0.674-0.281l0.013-0.002c0.228-0.030 0.493-0.047 0.761-0.047 0.097 0 0.194 0.002 0.29 0.007l-0.014-0.001h14.934s-4.666-4.649-4.904-4.905c-0.343-0.366-0.553-0.859-0.553-1.401 0-1.133 0.918-2.052 2.052-2.052 0.543 0 1.036 0.211 1.403 0.555l-0.001-0.001 8.418 8.42c0.366 0.369 0.593 0.878 0.593 1.439 0 0.060-0.003 0.12-0.008 0.179l0.001-0.008c-0.057 0.568-0.333 1.063-0.74 1.406l-0.003 0.003z"></path>
</svg>
