<!-- Generated by IcoMoon.io -->
<svg version="1.1" xmlns="http://www.w3.org/2000/svg" width="32" height="32" viewBox="0 0 32 32">
<path d="M16.002 30.587c-8.056-0.001-14.586-6.532-14.586-14.588s6.531-14.588 14.588-14.588 14.588 6.531 14.588 14.588c0 0.001 0 0.001 0 0.002v-0c0 8.056-6.531 14.587-14.587 14.587-0.001 0-0.002 0-0.003 0h0zM16.002 32c8.836-0.001 15.998-7.164 15.998-16s-7.163-16-16-16-16 7.163-16 16v0c0.011 8.833 7.169 15.99 16.001 16h0.001zM15.822 6.342l0.018 0.026zM10.7 18.008s4.666 4.65 4.904 4.906c0.35 0.367 0.566 0.866 0.566 1.415 0 1.133-0.919 2.052-2.052 2.052-0.549 0-1.048-0.216-1.416-0.567l0.001 0.001-8.418-8.421c-0.366-0.369-0.593-0.878-0.593-1.439 0-0.060 0.003-0.12 0.008-0.179l-0.001 0.008c0.055-0.572 0.331-1.071 0.74-1.417l0.003-0.003 8.267-8.267c0.371-0.366 0.88-0.593 1.443-0.593 1.044 0 1.905 0.779 2.036 1.787l0.001 0.010c0.010 0.077 0.016 0.166 0.016 0.257 0 0.567-0.23 1.079-0.602 1.45l-4.903 4.898h15.532c0.007-0 0.016-0 0.025-0 0.812 0 1.514 0.473 1.844 1.159l0.005 0.012c0.127 0.256 0.201 0.558 0.201 0.877 0 0.206-0.031 0.406-0.089 0.593l0.004-0.014c-0.15 0.483-0.454 0.882-0.855 1.147l-0.008 0.005c-0.197 0.129-0.427 0.227-0.674 0.281l-0.013 0.002c-0.228 0.030-0.493 0.047-0.761 0.047-0.097 0-0.194-0.002-0.29-0.007l0.014 0z"></path>
</svg>
