<!-- Generated by IcoMoon.io -->
<svg version="1.1" xmlns="http://www.w3.org/2000/svg" width="32" height="32" viewBox="0 0 32 32">
<path d="M16 32c8.837 0 16-7.163 16-16s-7.163-16-16-16c-8.837 0-16 7.163-16 16v0c0 8.837 7.163 16 16 16v0zM4.443 14.389l8.266-8.269c0.371-0.366 0.88-0.593 1.443-0.593 1.044 0 1.905 0.779 2.036 1.786l0.001 0.010c0.010 0.077 0.016 0.167 0.016 0.257 0 0.566-0.23 1.079-0.602 1.45l-4.902 4.898h15.53c0.006-0 0.012-0 0.019-0 0.297 0 0.58 0.063 0.836 0.175l-0.013-0.005c0.454 0.207 0.813 0.556 1.027 0.989l0.006 0.012c0.127 0.256 0.201 0.558 0.201 0.877 0 0.206-0.031 0.406-0.089 0.593l0.004-0.014c-0.149 0.483-0.454 0.881-0.855 1.145l-0.008 0.005c-0.197 0.13-0.427 0.229-0.675 0.281l-0.013 0.002c-0.23 0.031-0.495 0.048-0.765 0.048-0.096 0-0.191-0.002-0.285-0.007l0.013 0h-14.936s4.666 4.649 4.904 4.905c0.35 0.367 0.566 0.866 0.566 1.415 0 1.133-0.918 2.052-2.052 2.052-0.549 0-1.047-0.216-1.416-0.567l0.001 0.001-8.417-8.42c-0.366-0.369-0.593-0.878-0.593-1.439 0-0.061 0.003-0.121 0.008-0.18l-0.001 0.008c0.055-0.572 0.331-1.070 0.74-1.415l0.003-0.003z"></path>
</svg>
