<!-- Generated by IcoMoon.io -->
<svg version="1.1" xmlns="http://www.w3.org/2000/svg" width="32" height="32" viewBox="0 0 32 32">
<path d="M16 1.415c8.057 0 14.588 6.531 14.588 14.588s-6.531 14.588-14.588 14.588c-8.057 0-14.588-6.531-14.588-14.588 0-0.001 0-0.002 0-0.003v0c0.001-8.055 6.531-14.585 14.586-14.585 0.001 0 0.001 0 0.002 0h-0zM16 0c-8.835 0.002-15.997 7.165-15.997 16 0 8.837 7.163 16 16 16s16-7.163 16-16v0c-0.012-8.833-7.17-15.99-16.002-16h-0.001zM16.181 25.66l-0.018-0.027zM21.302 13.999s-4.666-4.65-4.904-4.904c-0.373-0.372-0.603-0.886-0.603-1.454 0-1.134 0.92-2.054 2.054-2.054 0.566 0 1.079 0.229 1.45 0.6l8.419 8.415c0.365 0.37 0.59 0.878 0.59 1.439 0 0.062-0.003 0.124-0.008 0.185l0.001-0.008c-0.055 0.572-0.331 1.070-0.74 1.415l-0.003 0.003-8.267 8.269c-0.367 0.349-0.864 0.563-1.412 0.563-1.133 0-2.052-0.919-2.052-2.052 0-0.551 0.217-1.050 0.57-1.419l-0.001 0.001 4.91-4.909h-15.538c-0.004 0-0.009 0-0.014 0-0.299 0-0.582-0.063-0.839-0.177l0.013 0.005c-0.454-0.206-0.814-0.555-1.027-0.989l-0.005-0.012c-0.127-0.257-0.201-0.559-0.201-0.879 0-0.205 0.031-0.404 0.088-0.591l-0.004 0.014c0.15-0.483 0.455-0.881 0.856-1.145l0.008-0.005c0.197-0.13 0.427-0.228 0.675-0.281l0.013-0.002c0.206-0.025 0.444-0.039 0.686-0.039 0.124 0 0.246 0.004 0.368 0.011l-0.017-0.001z"></path>
</svg>
