<!-- Generated by IcoMoon.io -->
<svg version="1.1" xmlns="http://www.w3.org/2000/svg" width="2136" height="1024" viewBox="0 0 2136 1024">
<g id="icomoon-ignore">
</g>
<path fill="#fff" d="M1469.84 511.827c0 84.922 68.863 153.777 153.786 153.777 84.914 0 153.718-68.872 153.718-153.777 0-84.922-68.804-153.718-153.718-153.718-84.931 0-153.786 68.796-153.786 153.718z"></path>
<path fill="#fff" d="M1623.499 33.717c264.218 0 478.254 214.112 478.254 478.22 0 264.133-214.044 478.287-478.254 478.287-138.793 0-263.803-59.21-351.137-153.845h-1166.575c-39.817 0-72.002-32.194-72.002-72.036v-505.159c0-39.783 32.194-72.036 72.002-72.036h1166.812c87.359-94.339 212.242-153.43 350.9-153.43zM1619.2 0c-135.502 1.176-266.003 56.671-360.994 153.43h-1152.42c-58.355 0-105.787 47.364-105.787 105.753v505.176c0 58.431 47.432 105.812 105.787 105.812h1152.098c95.964 97.927 228.369 153.836 365.613 153.836 282.426 0 512.047-229.739 512.047-512.063 0-281.596-228.487-510.828-509.999-511.945h-6.346z"></path>
<path fill="#fff" d="M1623.499 84.745c-132.143 0-250.325 60.106-328.715 154.31h-1140.972c-37.693 0-68.33 30.603-68.33 68.449v409.365c0 37.727 30.637 68.33 68.33 68.33h1141.564c78.365 93.916 196.302 153.836 328.123 153.836 235.848 0 427.167-191.251 427.167-427.268 0-235.924-191.318-427.023-427.167-427.023zM508.383 624.179c-15.593 15.247-30.392 24.782-86.242 24.782h-115.525v-272.907h132.591c66.909 0 84.068 41.738 84.068 69.87 0 39.064-22.151 50.139-33.514 55.893 33.514 12.421 42.228 39.199 42.228 66.207 0 21.601-9.062 42.025-23.606 56.155zM781.925 648.953l-84.423-119.874-26.66 27.405v92.469h-56.959v-272.899h56.959v110.931l104.171-110.931h73.686l-111.295 111.701 117.818 161.197h-73.297zM1090.367 648.953l-84.305-119.874-26.694 27.405v92.469h-56.959v-272.899h56.959v110.931l104.23-110.931h73.678l-111.371 111.701 117.852 161.197h-73.39zM1623.592 733.985c-122.709 0-222.108-99.399-222.108-222.226 0-122.641 99.399-221.972 222.108-221.972 122.556 0 222.015 99.331 222.015 221.972 0 122.827-99.458 222.226-222.015 222.226z"></path>
<path fill="#fff" d="M468.515 452.389c0-22.413-16.008-29.309-41.898-29.309h-65.268v59.785h66.85c22.337 0.008 40.316-8.757 40.316-30.476z"></path>
<path fill="#fff" d="M433.91 528.841h-72.595v72.908h69.921c27.743 0 43.726-12.141 43.726-39.919 0-23.927-20.569-32.989-41.052-32.989z"></path>
</svg>
