<!-- Generated by IcoMoon.io -->
<svg version="1.1" xmlns="http://www.w3.org/2000/svg" width="32" height="32" viewBox="0 0 32 32">
<path d="M16 1.493c8.012 0 14.507 6.495 14.507 14.507s-6.495 14.507-14.507 14.507c-8.012 0-14.507-6.495-14.507-14.507v0c0.009-8.008 6.499-14.497 14.506-14.507h0.001zM16 0c-8.837 0-16 7.163-16 16s7.163 16 16 16c8.837 0 16-7.163 16-16v0c0-8.837-7.163-16-16-16v0zM22.907 6.85h-13.825c-0.007-0-0.015-0-0.023-0-0.839 0-1.52 0.673-1.534 1.509l-0 0.001v13.375c0.015 0.835 0.695 1.505 1.532 1.505 0.009 0 0.017-0 0.026-0l-0.001 0h0.551v1.389c0.001 0.206 0.167 0.372 0.373 0.373h1.233c0.206-0.001 0.372-0.167 0.373-0.373v-1.389h8.783v1.389c0.001 0.206 0.167 0.372 0.373 0.373h1.233c0.206-0.001 0.372-0.167 0.373-0.373v-1.389h0.54c0.008 0 0.017 0 0.026 0 0.837 0 1.518-0.671 1.534-1.504l0-0.002v-13.375c-0.013-0.837-0.695-1.51-1.534-1.51-0.012 0-0.023 0-0.035 0l0.002-0zM9.046 8.692c0.001-0.274 0.223-0.496 0.497-0.497h12.884c0 0 0 0 0 0 0.273 0 0.495 0.222 0.495 0.495 0 0.001 0 0.001 0 0.002v-0 0.546c0 0 0 0.001 0 0.002 0 0.274-0.222 0.495-0.495 0.495 0 0 0 0 0 0h-12.884c-0.274-0.001-0.496-0.223-0.497-0.497v-0zM13.14 22.176h-3.585c-0.274-0.001-0.496-0.223-0.497-0.497v-0.903c0 0 0 0 0 0 0-0.274 0.222-0.496 0.495-0.497h2.723c0.305 0.016 0.565 0.193 0.699 0.447l0.002 0.005 0.452 0.992c0.026 0.044 0.042 0.097 0.042 0.154 0 0.166-0.135 0.301-0.301 0.301-0.011 0-0.021-0.001-0.031-0.002l0.001 0zM10.085 19.432c-0.006 0-0.014 0-0.021 0-0.542 0-0.983-0.434-0.995-0.973l-0-0.001v-6.662c0.012-0.542 0.454-0.977 0.998-0.977 0.006 0 0.013 0 0.019 0h11.825c0.005-0 0.012-0 0.018-0 0.544 0 0.986 0.435 0.998 0.976l0 0.001v6.662c-0.012 0.54-0.453 0.974-0.995 0.974-0.008 0-0.015-0-0.022-0l0.001 0h-11.826zM22.946 21.674c-0.001 0.274-0.223 0.496-0.497 0.497h-3.585c-0.009 0.001-0.020 0.002-0.031 0.002-0.166 0-0.301-0.135-0.301-0.301 0-0.056 0.015-0.109 0.042-0.153l-0.001 0.001 0.452-0.992c0.137-0.258 0.397-0.434 0.699-0.451l0.002-0h2.723c0.274 0.001 0.496 0.223 0.497 0.497v0z"></path>
</svg>
