<!-- Generated by IcoMoon.io -->
<svg version="1.1" xmlns="http://www.w3.org/2000/svg" width="32" height="32" viewBox="0 0 32 32">
<path d="M9.543 9.808h12.884c0.273 0 0.495-0.222 0.495-0.495v0-0.548c0-0 0-0.001 0-0.002 0-0.274-0.222-0.495-0.495-0.495 0 0 0 0 0 0h-12.884c-0.274 0.001-0.496 0.223-0.497 0.497v0.548c0.002 0.273 0.223 0.494 0.497 0.495h0zM15.998 0c-8.836 0.001-15.998 7.164-15.998 16s7.163 16 16 16 16-7.163 16-16v0c-0.010-8.833-7.168-15.991-16.001-16h-0.001zM24.467 21.807c-0.016 0.835-0.696 1.505-1.534 1.505-0.009 0-0.018-0-0.027-0l0.001 0h-0.54v1.389c-0.001 0.206-0.167 0.372-0.373 0.373h-1.233c-0.206-0.001-0.372-0.167-0.373-0.373v-1.389h-8.783v1.389c-0.001 0.206-0.167 0.372-0.373 0.373h-1.233c-0.202-0.005-0.364-0.169-0.366-0.372v-1.389h-0.551c-0.007 0-0.016 0-0.024 0-0.837 0-1.517-0.671-1.532-1.504l-0-0.001v-13.38c0.016-0.835 0.696-1.505 1.534-1.505 0.008 0 0.016 0 0.024 0h13.824c0.008-0 0.017-0 0.026-0 0.837 0 1.518 0.671 1.534 1.504l0 0.002zM22.45 20.354h-2.723c-0.305 0.017-0.564 0.194-0.699 0.447l-0.002 0.005-0.452 0.993c-0.026 0.044-0.041 0.096-0.041 0.152 0 0.166 0.135 0.301 0.301 0.301 0.011 0 0.021-0.001 0.032-0.002l-0.001 0h3.585c0.273-0.001 0.495-0.222 0.497-0.495v-0.903c0 0 0 0 0 0 0-0.275-0.222-0.497-0.497-0.498h-0zM22.925 18.53v-6.662c-0.012-0.541-0.453-0.976-0.996-0.976-0.007 0-0.014 0-0.021 0l0.001-0h-11.825c-0.006-0-0.013-0-0.020-0-0.543 0-0.985 0.434-0.996 0.974l-0 0.001v6.662c0.012 0.541 0.453 0.976 0.996 0.976 0.007 0 0.014-0 0.021-0l-0.001 0h11.826c0.005 0 0.012 0 0.018 0 0.543 0 0.985-0.434 0.996-0.974l0-0.001zM12.978 20.805c-0.136-0.258-0.397-0.435-0.699-0.451l-0.002-0h-2.723c-0.273 0.001-0.494 0.222-0.495 0.495v0.903c0.002 0.273 0.223 0.494 0.497 0.495h3.585c0.009 0.001 0.019 0.001 0.029 0.001 0.166 0 0.301-0.135 0.301-0.301 0-0.056-0.015-0.108-0.042-0.153l0.001 0.001z"></path>
</svg>
