<!-- Generated by IcoMoon.io -->
<svg version="1.1" xmlns="http://www.w3.org/2000/svg" width="32" height="32" viewBox="0 0 32 32">
<path d="M16 0c-8.837 0-16 7.163-16 16s7.163 16 16 16c8.837 0 16-7.163 16-16v0c0-8.837-7.163-16-16-16v0zM16 29.324c-7.359 0-13.324-5.965-13.324-13.324s5.965-13.324 13.324-13.324c7.359 0 13.324 5.965 13.324 13.324v0c-0.009 7.355-5.969 13.315-13.323 13.324h-0.001zM15.804 8h-6.484v12.52c0.794-0.398 1.728-0.637 2.717-0.652l0.005-0c1.614 0 2.586 0.668 4.612 0.668 2.192 0 4.403-1.338 4.439-4.532h-2.465c-0.078 1.123-0.659 2.14-2.029 2.14-2.027 0-3.021-0.546-4.636-0.546v0-7.089h3.843c2.949 0 6.423 1.258 6.423 5.491 0 2.831-1.647 5.644-5.581 5.644-2.026 0-2.998-0.655-4.612-0.655-1.001 0.022-1.935 0.29-2.75 0.747l0.030-0.015v2.512c0.787-0.441 1.724-0.708 2.722-0.727l0.006-0c1.614 0 2.586 0.655 4.612 0.655 4.902 0 8.217-3.311 8.217-8.161-0.002-4.643-3.472-8-9.066-8z"></path>
</svg>
