<!-- Generated by IcoMoon.io -->
<svg version="1.1" xmlns="http://www.w3.org/2000/svg" width="32" height="32" viewBox="0 0 32 32">
<path d="M16 0c-8.837 0-16 7.163-16 16s7.163 16 16 16c8.837 0 16-7.163 16-16v0c0-8.837-7.163-16-16-16v0zM16.793 24.233c-0.911-0.011-1.787-0.139-2.62-0.369l0.072 0.017c-0.699-0.174-1.505-0.283-2.335-0.301l-0.012-0c-0.943 0.019-1.827 0.252-2.611 0.652l0.034-0.016v-2.198c0.747-0.403 1.63-0.65 2.569-0.674l0.008-0c0.821 0.021 1.606 0.129 2.359 0.317l-0.075-0.016c0.78 0.218 1.678 0.348 2.604 0.358l0.006 0c1.901 0 3.438-0.665 4.445-1.924 0.823-1.030 1.278-2.583 1.278-4.084 0-5.465-5.468-5.771-6.566-5.771h-4.27v7.628c0.867 0.006 1.708 0.105 2.516 0.289l-0.078-0.015c0.782 0.233 1.683 0.373 2.614 0.385l0.007 0c1.239 0 2.024-1.031 2.158-2.508h2.19c-0.101 3.26-2.374 4.615-4.294 4.615-0.91-0.011-1.785-0.141-2.616-0.375l0.071 0.017c-0.7-0.179-1.507-0.29-2.338-0.308l-0.012-0c-0.936 0.014-1.82 0.223-2.617 0.589l0.041-0.017v-12.526h6.623c5.334 0 8.918 3.23 8.918 7.997 0.006 4.835-3.239 8.236-8.069 8.236z"></path>
</svg>
