<!-- Generated by IcoMoon.io -->
<svg version="1.1" xmlns="http://www.w3.org/2000/svg" width="32" height="32" viewBox="0 0 32 32">
<path d="M16 1.493c8.012 0 14.507 6.495 14.507 14.507s-6.495 14.507-14.507 14.507c-8.012 0-14.507-6.495-14.507-14.507v0c0.009-8.008 6.499-14.498 14.506-14.507h0.001zM16 0c-8.837 0-16 7.163-16 16s7.163 16 16 16c8.837 0 16-7.163 16-16v0c0-0 0-0 0-0 0-8.836-7.163-16-16-16-0 0-0 0-0 0h0zM18.416 10.664v14.277h1.903v1.701h-8.634v-1.701h1.904v-12.577h-1.904v-1.699h6.731zM13.452 6.177c0.001-0.64 0.253-1.22 0.663-1.649l-0.001 0.001c0.406-0.451 0.992-0.733 1.643-0.733 0.026 0 0.052 0 0.078 0.001l-0.004-0h0.34c0.631 0.007 1.203 0.251 1.633 0.647l-0.002-0.002c0.461 0.4 0.751 0.988 0.751 1.643 0 0.032-0.001 0.063-0.002 0.094l0-0.004c0 0 0 0.001 0 0.001 0 0.637-0.246 1.217-0.649 1.649l0.001-0.001c-0.404 0.451-0.988 0.734-1.639 0.734-0.034 0-0.067-0.001-0.1-0.002l0.005 0h-0.34c-0.631-0.007-1.203-0.251-1.633-0.647l0.002 0.002c-0.461-0.401-0.752-0.988-0.752-1.643 0-0.032 0.001-0.064 0.002-0.095l-0 0.005z"></path>
</svg>
