<!-- Generated by IcoMoon.io -->
<svg version="1.1" xmlns="http://www.w3.org/2000/svg" width="32" height="32" viewBox="0 0 32 32">
<path d="M16 1.415c8.056 0.001 14.587 6.532 14.587 14.588s-6.531 14.588-14.588 14.588-14.588-6.531-14.588-14.588c0-0.001 0-0.002 0-0.003v0c0.001-8.055 6.532-14.585 14.587-14.585 0.001 0 0.001 0 0.002 0h-0zM16 0c-8.835 0.002-15.997 7.165-15.997 16 0 8.837 7.163 16 16 16s16-7.163 16-16c0-0 0-0 0-0v0c-0.012-8.833-7.17-15.99-16.002-16h-0.001zM23.495 11.181l-2.643-2.643-4.816 4.817-4.817-4.817-2.643 2.643 4.81 4.823-4.808 4.81 2.661 2.658 4.797-4.811 4.796 4.811 2.661-2.658-4.808-4.81z"></path>
</svg>
