<!-- Generated by IcoMoon.io -->
<svg version="1.1" xmlns="http://www.w3.org/2000/svg" width="32" height="32" viewBox="0 0 32 32">
<path d="M24.24 14.785h-6.638c-0.414 0.001-0.357-0.056-0.534 0.334l-0.95 2.193-0.002 0.002 9.522-0.027-0.944-2.181c-0.147-0.343-0.095-0.321-0.454-0.321zM17.976 11.595c-0.126-0.291-0.081-0.271-0.385-0.271h-5.622c-0.351 0.002-0.303-0.047-0.453 0.283l-0.804 1.857 8.063-0.022zM16 0c-0 0-0.001 0-0.001 0-8.837 0-16 7.163-16 16s7.163 16 16 16c8.836 0 15.999-7.163 16-15.998v-0c-0.009-8.833-7.166-15.991-15.998-16.001h-0.001zM6.159 14.614c-0.835-0.004-0.703 0.080-0.715-1.534l1.287-0.003v0.002c-0.005 1.615 0.129 1.525-0.572 1.535zM4.917 11.676c-0.023-1.668-0.113-0.233 0.891-2.705 0.727-1.68-0.009-1.227 3.751-1.288 3.348 0.068 2.672-0.417 3.441 1.367 0.211 0.524 0.428 0.962 0.672 1.382l-0.027-0.050q-0.504-0.005-0.873-0.012c-0.241-0.004-0.45-0.008-0.629-0.008-1.097 0-1.26 0.175-1.6 1.064-0.069 0.181-0.147 0.387-0.259 0.644-0.136 0.334-0.251 0.602-0.354 0.823l-0.002-0.001c-0.175 0.001-0.355 0.003-0.545 0.004-5.026-0.068-4.431 0.358-4.467-1.221zM10.973 18.777c-0.977-0.004-0.822 0.095-0.835-1.791v-0.002l1.504-0.003c-0.004 1.887 0.152 1.782-0.668 1.796zM9.523 15.344c-0.027-1.948-0.133-0.271 1.042-3.159 0.849-1.964-0.012-1.434 4.383-1.507 3.91 0.080 3.122-0.488 4.020 1.597 0.237 0.581 0.47 1.059 0.729 1.52l-0.035-0.067c-0.43-0.003-0.801-0.009-1.111-0.015-0.286-0.005-0.531-0.009-0.742-0.009-1.32 0-1.46 0.233-1.838 1.222-0.081 0.215-0.174 0.458-0.305 0.762-0.184 0.449-0.337 0.801-0.47 1.081v-0.001l-0.451 0.004c-5.875-0.078-5.179 0.419-5.221-1.427zM16.426 23.583c-1.153-0.005-0.971 0.111-0.986-2.115l1.775-0.004c-0.004 2.229 0.179 2.104-0.789 2.119zM25.506 23.57c-1.040-0.014-0.909 0.151-0.923-2.086h1.779c-0.012 2.232 0.151 2.080-0.856 2.086zM20.879 21.215c-6.936-0.093-6.115 0.495-6.165-1.684-0.032-2.3-0.157-0.322 1.23-3.731 1.002-2.316-0.014-1.693 5.175-1.778 4.618 0.095 3.688-0.575 4.747 1.886 1.329 3.15 1.227 1.502 1.218 3.557v-0.001c-0.050 2.256 0.784 1.677-6.204 1.752zM12.153 8.468c-0.107-0.248-0.069-0.232-0.33-0.232h-4.81c-0.301 0.001-0.26-0.041-0.388 0.242l-0.688 1.589 6.901-0.020z"></path>
</svg>
