<!-- Generated by IcoMoon.io -->
<svg version="1.1" xmlns="http://www.w3.org/2000/svg" width="32" height="32" viewBox="0 0 32 32">
<path d="M16.001 0c-0 0-0 0-0.001 0-8.837 0-16 7.163-16 16s7.163 16 16 16c8.837 0 16-7.163 16-16 0-0 0-0.001 0-0.001v0c-0.011-8.832-7.168-15.988-15.998-15.999h-0.001zM12.992 6.641c0-1.633 1.323-2.956 2.956-2.956s2.956 1.323 2.956 2.956v0c-0 0.079-0.005 0.156-0.013 0.232l0.001-0.010h0.003l-0.008 0.051c0 0.023-0.003 0.044-0.009 0.065l0-0.002-1.291 12.218h-0.006c-0.116 0.758-0.763 1.332-1.544 1.332-0.798 0-1.456-0.599-1.55-1.371l-0.001-0.008h-0.005l-1.49-12.286h0.012c-0.006-0.074-0.012-0.146-0.012-0.223zM16.056 28.314c-1.632-0-2.955-1.323-2.955-2.955s1.323-2.955 2.955-2.955c1.632 0 2.955 1.323 2.955 2.954v0c0 0 0 0.001 0 0.001 0 1.632-1.323 2.955-2.955 2.955-0 0-0.001 0-0.001 0h0z"></path>
</svg>
