<!-- Generated by IcoMoon.io -->
<svg version="1.1" xmlns="http://www.w3.org/2000/svg" width="32" height="32" viewBox="0 0 32 32">
<path d="M16 0c-8.837 0-16 7.163-16 16s7.163 16 16 16c8.836 0 15.999-7.163 16-15.998v-0c-0.011-8.833-7.168-15.99-15.999-16.001h-0.001zM13.451 6.179c0.001-0.64 0.253-1.22 0.663-1.649l-0.001 0.001c0.406-0.451 0.992-0.733 1.643-0.733 0.026 0 0.052 0 0.078 0.001l-0.004-0h0.339c0.631 0.007 1.203 0.251 1.633 0.647l-0.002-0.002c0.461 0.4 0.751 0.988 0.751 1.643 0 0.032-0.001 0.063-0.002 0.094l0-0.004c0 0 0 0.001 0 0.001 0 0.637-0.246 1.217-0.649 1.649l0.001-0.001c-0.404 0.451-0.988 0.734-1.639 0.734-0.034 0-0.067-0.001-0.1-0.002l0.005 0h-0.339c-0.631-0.007-1.203-0.251-1.633-0.647l0.002 0.002c-0.461-0.401-0.752-0.988-0.752-1.643 0-0.032 0.001-0.064 0.002-0.095l-0 0.005zM20.317 26.642h-8.632v-1.701h1.903v-12.576h-1.903v-1.699h6.73v14.275h1.902z"></path>
</svg>
