<!-- Generated by IcoMoon.io -->
<svg version="1.1" xmlns="http://www.w3.org/2000/svg" width="32" height="32" viewBox="0 0 32 32">
<path d="M16.001 1.413c8.056 0 14.586 6.531 14.586 14.587s-6.531 14.587-14.587 14.587-14.587-6.531-14.587-14.587c0-0 0-0.001 0-0.001v0c0.001-8.056 6.532-14.586 14.588-14.586v0zM16.001 0c-0 0-0 0-0.001 0-8.837 0-16 7.163-16 16s7.163 16 16 16c8.837 0 16-7.163 16-16 0-0 0-0.001 0-0.001v0c-0.011-8.832-7.168-15.988-15.998-15.999h-0.001zM19.012 25.358c-0-1.632-1.323-2.954-2.955-2.954s-2.955 1.323-2.955 2.955c0 1.632 1.323 2.955 2.954 2.955h0c0.001 0 0.001 0 0.002 0 1.631 0 2.954-1.323 2.954-2.954 0-0.001 0-0.001 0-0.002v0zM18.896 6.863h-0.005c0.007-0.067 0.012-0.144 0.012-0.222v-0c-0.004-1.63-1.326-2.95-2.956-2.95s-2.952 1.32-2.956 2.949v0c0 0.077 0.006 0.149 0.012 0.223h-0.012l1.49 12.286h0.005c0.094 0.78 0.752 1.379 1.55 1.379 0.781 0 1.428-0.574 1.543-1.323l0.001-0.009h0.006l1.291-12.219c0.006-0.019 0.009-0.041 0.009-0.063v0l0.008-0.051z"></path>
</svg>
