<!-- Generated by IcoMoon.io -->
<svg version="1.1" xmlns="http://www.w3.org/2000/svg" width="32" height="32" viewBox="0 0 32 32">
<path d="M16 0c-8.836 0.001-15.999 7.164-15.999 16s7.163 16 16 16 16-7.163 16-16v0c-0.012-8.832-7.169-15.989-16-16h-0.001zM16 30.589c-8.055-0.001-14.585-6.532-14.585-14.587s6.531-14.587 14.587-14.587c8.056 0 14.586 6.53 14.587 14.585v0c0 0.001 0 0.002 0 0.003 0 8.056-6.531 14.587-14.587 14.587-0.001 0-0.002 0-0.003 0h0zM6.731 13.078l-1.287 0.003c0.012 1.614-0.12 1.529 0.715 1.534 0.702-0.011 0.568 0.080 0.572-1.535zM10.138 16.986v0.001c0.014 1.886-0.141 1.787 0.835 1.791 0.82-0.014 0.664 0.092 0.668-1.796zM15.441 21.469h0.001c0.015 2.226-0.167 2.111 0.986 2.115 0.968-0.015 0.784 0.11 0.789-2.12zM24.586 21.485c0.015 2.237-0.117 2.073 0.923 2.086 1.007-0.006 0.844 0.146 0.857-2.086zM9.932 12.895c0.102-0.221 0.218-0.489 0.354-0.823 0.111-0.257 0.19-0.464 0.259-0.644 0.34-0.89 0.503-1.064 1.6-1.064 0.179 0 0.388 0.003 0.629 0.008q0.37 0.007 0.873 0.012c-0.218-0.37-0.435-0.808-0.62-1.262l-0.025-0.070c-0.769-1.784-0.093-1.299-3.441-1.367-3.762 0.062-3.024-0.391-3.751 1.289-1.006 2.472-0.914 1.037-0.891 2.705 0.036 1.579-0.558 1.153 4.468 1.221 0.19-0.001 0.37-0.003 0.545-0.004zM5.937 10.069l0.688-1.59c0.128-0.283 0.087-0.241 0.388-0.242h4.811c0.26 0 0.223-0.017 0.33 0.232l0.685 1.581zM15.199 16.768v0zM15.198 16.768c0.132-0.28 0.286-0.631 0.469-1.079 0.131-0.304 0.224-0.546 0.307-0.762 0.378-0.989 0.518-1.222 1.838-1.222 0.211 0 0.456 0.005 0.742 0.009 0.31 0.006 0.68 0.012 1.111 0.015-0.224-0.393-0.457-0.871-0.661-1.364l-0.033-0.089c-0.899-2.085-0.11-1.517-4.021-1.597-4.396 0.072-3.534-0.457-4.383 1.507-1.174 2.889-1.069 1.212-1.042 3.16 0.042 1.846-0.653 1.349 5.222 1.427q0.232-0.002 0.451-0.005zM10.713 13.465l0.804-1.857c0.15-0.33 0.102-0.281 0.453-0.283h5.622c0.304 0 0.259-0.020 0.385 0.271l0.799 1.847zM27.086 19.465v0.002c0.009-2.055 0.111-0.406-1.218-3.557-1.061-2.461-0.129-1.791-4.748-1.886-5.189 0.084-4.173-0.539-5.175 1.778-1.386 3.41-1.261 1.432-1.23 3.732 0.050 2.18-0.771 1.591 6.166 1.684 6.989-0.075 6.157 0.504 6.205-1.752zM16.118 17.316l0.001-0.001 0.95-2.193c0.178-0.39 0.12-0.333 0.534-0.334h6.638c0.36 0 0.307-0.023 0.455 0.321l0.944 2.181z"></path>
</svg>
