<!-- Generated by IcoMoon.io -->
<svg version="1.1" xmlns="http://www.w3.org/2000/svg" width="32" height="32" viewBox="0 0 32 32">
<path d="M16 0c-8.837 0-16 7.163-16 16s7.163 16 16 16c8.837 0 16-7.163 16-16v0c-0.011-8.832-7.168-15.989-15.999-16h-0.001zM16.011 25.316c-5.146 0-9.317-4.171-9.317-9.317s4.171-9.317 9.317-9.317c5.146 0 9.317 4.171 9.317 9.317 0 0.001 0 0.001 0 0.002v-0c-0.009 5.142-4.175 9.307-9.316 9.316h-0.001zM16.011 9.308c-3.696 0-6.692 2.996-6.692 6.692s2.996 6.692 6.692 6.692c3.696 0 6.692-2.996 6.692-6.692v0c-0.005-3.694-2.998-6.687-6.692-6.692h-0z"></path>
</svg>
