<!-- Generated by IcoMoon.io -->
<svg version="1.1" xmlns="http://www.w3.org/2000/svg" width="32" height="32" viewBox="0 0 32 32">
<path d="M16 0c-8.837 0-16 7.163-16 16s7.163 16 16 16c8.837 0 16-7.163 16-16v0c0-8.837-7.163-16-16-16v0zM16 29.324c-7.359 0-13.324-5.965-13.324-13.324s5.965-13.324 13.324-13.324c7.359 0 13.324 5.965 13.324 13.324v0c-0.009 7.355-5.969 13.315-13.323 13.324h-0.001zM20.038 12.966h-8.077v-4.951h-2.64v7.46h10.717v8.54h2.642v-16h-2.642v4.951zM9.322 24.015h2.64v-4.952h7.065v-2.509h-9.705v7.461z"></path>
</svg>
