<!-- Generated by IcoMoon.io -->
<svg version="1.1" xmlns="http://www.w3.org/2000/svg" width="32" height="32" viewBox="0 0 32 32">
<path d="M15.999 1.413c8.056 0 14.587 6.531 14.587 14.587s-6.531 14.587-14.587 14.587c-8.056 0-14.587-6.531-14.587-14.587 0-0.001 0-0.001 0-0.002v0c0.001-8.056 6.532-14.586 14.587-14.586v0zM15.999 0c-8.836 0.001-15.999 7.164-15.999 16.001s7.164 16.001 16.001 16.001 16.001-7.164 16.001-16.001c0-0.001 0-0.001 0-0.002v0c-0.012-8.832-7.17-15.989-16.001-15.999h-0.001zM16.227 7.827c-0 0-0.001 0-0.002 0-3.17 0-5.739 2.57-5.739 5.739s2.57 5.739 5.739 5.739c3.17 0 5.739-2.57 5.739-5.739 0-0.001 0-0.001 0-0.002v0c-0.003-3.168-2.57-5.735-5.738-5.738h-0zM18.241 16.636l-0.602-1.704h-2.898l-0.613 1.704h-1.484l2.592-6.808h1.981l2.603 6.808zM15.046 13.904h2.276l-1.121-3.113-1.155 3.113zM16.227 5.666c-0.002 0-0.004 0-0.006 0-4.413 0-7.991 3.578-7.991 7.991 0 2.99 1.642 5.596 4.073 6.967l0.040 0.021 3.878 6.5 3.876-6.5c2.471-1.391 4.113-3.997 4.113-6.987 0-4.411-3.573-7.987-7.983-7.991h-0zM16.227 19.898c-3.492 0-6.322-2.83-6.322-6.322s2.83-6.322 6.322-6.322c3.492 0 6.322 2.83 6.322 6.322v0c0 3.492-2.83 6.322-6.322 6.322v0zM24.581 12.644l4.875-0.426c-0.099-0.352-0.212-0.7-0.337-1.040l-4.734 0.412c0.079 0.292 0.147 0.65 0.192 1.015l0.004 0.039zM15.504 26.757l-0.852-1.428-0.536 0.095-0.248-1.41-1.826-3.053c-0.113-0.065-0.223-0.134-0.333-0.203l0.872 4.936-5.581 0.984c0.519 0.442 1.094 0.861 1.699 1.234l0.060 0.035 4.091-0.721 0.438 2.484c0.449 0.094 1.001 0.173 1.562 0.219l0.052 0.003-0.524-2.977zM17.125 26.471l9.763-1.722c0.427-0.526 0.834-1.113 1.195-1.729l0.036-0.067-9.935 1.752zM7.809 13.656c0-0.206 0.011-0.409 0.024-0.611l-5.589 0.489c-0.063 0.355-0.114 0.716-0.151 1.082l5.733-0.501c-0.012-0.152-0.018-0.306-0.018-0.459zM10.889 7.153l-0.682-3.868c-0.577 0.266-1.051 0.522-1.508 0.802l0.063-0.036 0.792 4.484c0.398-0.517 0.837-0.97 1.321-1.37l0.014-0.011z"></path>
</svg>
