<!-- Generated by IcoMoon.io -->
<svg version="1.1" xmlns="http://www.w3.org/2000/svg" width="32" height="32" viewBox="0 0 32 32">
<path d="M22.552 13.569c0-3.491-2.83-6.321-6.321-6.321s-6.321 2.83-6.321 6.321c0 3.491 2.83 6.321 6.321 6.321v0c3.491 0 6.321-2.83 6.321-6.321v0zM16.231 19.306c-3.17 0-5.739-2.569-5.739-5.739s2.569-5.739 5.739-5.739c3.17 0 5.739 2.569 5.739 5.739 0 0.001 0 0.001 0 0.002v-0c-0.004 3.17-2.575 5.737-5.745 5.737-0.001 0-0.001 0-0.002 0h0zM15.229 9.83l-2.586 6.808h1.49l0.613-1.704h2.899l0.602 1.704h1.573l-2.61-6.808zM15.051 13.903l1.153-3.113 1.123 3.113zM15.998 0c-8.837 0-16.001 7.164-16.001 16.001s7.164 16.001 16.001 16.001c8.837 0 16.001-7.164 16.001-16.001 0-0.001 0-0.001 0-0.002v0c-0.011-8.832-7.168-15.989-16-15.999h-0.001zM29.116 11.181c0.125 0.34 0.238 0.688 0.337 1.040l-4.875 0.421c-0.049-0.405-0.118-0.763-0.208-1.112l0.013 0.058zM10.206 3.284l0.682 3.868c-0.498 0.412-0.937 0.865-1.322 1.362l-0.014 0.019-0.79-4.484c0.394-0.245 0.868-0.5 1.357-0.729l0.088-0.037zM2.094 14.615q0.054-0.548 0.151-1.082l5.582-0.489c-0.014 0.202-0.024 0.405-0.024 0.611 0 0.15 0 0.301 0.014 0.452zM14.901 29.929c-0.614-0.050-1.167-0.129-1.71-0.238l0.092 0.015-0.438-2.483-4.091 0.721c-0.666-0.409-1.241-0.827-1.781-1.286l0.020 0.017 5.581-0.984-0.867-4.935c0.11 0.069 0.22 0.138 0.333 0.203l1.821 3.052 0.248 1.41 0.536-0.095 0.852 1.428-1.117 0.197zM12.342 20.642c-2.472-1.391-4.114-3.997-4.114-6.987 0-4.413 3.578-7.991 7.991-7.991s7.991 3.578 7.991 7.991c0 2.99-1.642 5.597-4.074 6.967l-0.040 0.021-3.87 6.499zM26.88 24.747l-9.764 1.722 1.054-1.765 9.941-1.752c-0.396 0.683-0.801 1.27-1.246 1.823l0.021-0.027z"></path>
</svg>
