<!-- Generated by IcoMoon.io -->
<svg version="1.1" xmlns="http://www.w3.org/2000/svg" width="32" height="32" viewBox="0 0 32 32">
<path d="M16 0c-8.837 0-16 7.163-16 16s7.163 16 16 16c8.837 0 16-7.163 16-16v0c0-8.837-7.163-16-16-16v0zM16 29.324c-7.359 0-13.324-5.965-13.324-13.324s5.965-13.324 13.324-13.324c7.359 0 13.324 5.965 13.324 13.324v0c-0.009 7.355-5.969 13.315-13.323 13.324h-0.001zM24 9.775v0-1.775h-1.775l-6.225 6.225-6.225-6.225h-1.775v16h2.642v-11.584l5.358 5.358 8-8zM11.653 15.040v3.549l4.347 4.347 5.358-5.358v6.417h2.642v-12.607l-8 8-4.347-4.347z"></path>
</svg>
