<!-- Generated by IcoMoon.io -->
<svg version="1.1" xmlns="http://www.w3.org/2000/svg" width="32" height="32" viewBox="0 0 32 32">
<path d="M16 1.493c8.012 0 14.507 6.495 14.507 14.507s-6.495 14.507-14.507 14.507c-8.012 0-14.507-6.495-14.507-14.507v0c0.009-8.008 6.499-14.497 14.506-14.507h0.001zM16 0c-8.837 0-16 7.163-16 16s7.163 16 16 16c8.837 0 16-7.163 16-16v0c0-8.837-7.163-16-16-16v0zM20.509 24.73c-0.152-0.164-0.363-0.271-0.599-0.287l-0.003-0h-0.509c-0.011-0.002-0.024-0.003-0.037-0.003-0.116 0-0.209 0.094-0.209 0.209 0 0.048 0.016 0.092 0.043 0.127l-0-0 1.242 2.422c0.116 0.197 0.324 0.328 0.564 0.333h1.423c0.209 0 0.271-0.129 0.142-0.288zM16.051 19.978c-0 0-0.001 0-0.002 0-0.284 0-0.515 0.23-0.515 0.515s0.23 0.515 0.515 0.515c0.284 0 0.515-0.23 0.515-0.515 0-0.001 0-0.001 0-0.002v0c0-0.283-0.23-0.513-0.513-0.513v0zM10.164 10.195v12.342c0.003 0.733 0.598 1.326 1.332 1.326 0 0 0 0 0 0h9.114c0 0 0 0 0 0 0.734 0 1.329-0.593 1.332-1.326v-12.344zM10.858 11.481l0.39-0.418h1.568l0.396 0.418v5.536h-2.36zM12.732 22.412c-0.572-0.030-1.066-0.339-1.351-0.794l-0.004-0.007c-0.358-0.597-0.571-1.317-0.571-2.086 0-0.078 0.002-0.156 0.007-0.233l-0 0.011c0.017-0.096 0.1-0.168 0.2-0.168s0.183 0.072 0.2 0.167l0 0.001c-0.003 0.058-0.005 0.126-0.005 0.195 0 0.698 0.198 1.35 0.541 1.902l-0.009-0.015c0.204 0.351 0.564 0.591 0.983 0.626l0.005 0c0.626 0 1.303-0.643 1.303-2.059-0.002-0.010-0.003-0.022-0.003-0.034 0-0.113 0.091-0.204 0.204-0.204 0.101 0 0.184 0.073 0.201 0.169l0 0.001c0.001 0.010 0.002 0.022 0.002 0.034s-0.001 0.024-0.002 0.035l0-0.001c0 1.692-0.887 2.459-1.693 2.459zM16.063 21.846c-0 0-0.001 0-0.002 0-0.764 0-1.383-0.619-1.383-1.383s0.619-1.383 1.383-1.383c0.764 0 1.383 0.619 1.383 1.383 0 0.003 0 0.005-0 0.008v-0c0 0.763-0.619 1.382-1.382 1.382-0.001 0-0.001 0-0.002 0h0zM18.363 16.987h-4.463v-5.507l0.39-0.418h3.668l0.39 0.412zM21.411 16.987h-2.363v-5.507l0.388-0.418h1.57l0.39 0.418zM19.59 8.81c0.792 0 1.434-0.642 1.434-1.434s-0.642-1.434-1.434-1.434c-0.792 0-1.434 0.642-1.434 1.434v0c0 0.791 0.642 1.433 1.433 1.433 0.001 0 0.001 0 0.002 0h-0zM15.142 7.86v-0.828c0-0.31 0.373-0.616 0.903-0.915 0.53 0.301 0.903 0.602 0.903 0.915v0.829h-1.806zM17.249 3.155h-2.408c-1.014 0.006-1.776 0.458-1.776 1.060 0.031 0.37 0.269 0.678 0.596 0.811l0.006 0.002c0.016 0.012 0.035 0.022 0.056 0.028l0.001 0 0.175 0.072 0.623 1.946v0.829c-2.529 0.2-4.392 0.9-4.392 1.729h11.796c0-0.39-0.406-0.753-1.094-1.043-0.32 0.331-0.767 0.536-1.263 0.536-0.772 0-1.427-0.498-1.662-1.191l-0.004-0.012-0.351-0.029v-0.811l0.622-1.942 0.175-0.062 0.056-0.029c0.334-0.134 0.572-0.442 0.602-0.809l0-0.003c0-0.602-0.762-1.054-1.778-1.054zM14.901 6.207l-0.221-0.744c0.259 0.113 0.513 0.22 0.753 0.339-0.195 0.121-0.364 0.259-0.512 0.416l-0.001 0.001zM16.707 5.802c0.242-0.119 0.497-0.226 0.753-0.339l-0.265 0.744c-0.151-0.157-0.319-0.294-0.502-0.41l-0.011-0.006zM18.172 4.516l-0.763 0.333c-0.485 0.209-0.953 0.412-1.355 0.62-0.412-0.208-0.881-0.411-1.367-0.62l-0.765-0.333c-0.175-0.096-0.259-0.203-0.259-0.271s0.417-0.464 1.179-0.464h2.408c0.763 0 1.18 0.31 1.18 0.464s-0.078 0.175-0.259 0.271zM11.503 24.73c0.152-0.164 0.363-0.271 0.599-0.287l0.003-0h0.507c0.010-0.002 0.021-0.003 0.033-0.003 0.116 0 0.211 0.094 0.211 0.211 0 0.047-0.015 0.090-0.041 0.125l0-0.001-1.24 2.422c-0.116 0.197-0.324 0.328-0.564 0.333h-1.411c-0.203 0-0.265-0.129-0.135-0.288z"></path>
</svg>
