<!-- Generated by IcoMoon.io -->
<svg version="1.1" xmlns="http://www.w3.org/2000/svg" width="32" height="32" viewBox="0 0 32 32">
<path d="M16 1.493c8.012 0 14.507 6.495 14.507 14.507s-6.495 14.507-14.507 14.507c-8.012 0-14.507-6.495-14.507-14.507v0c0.009-8.008 6.499-14.497 14.506-14.507h0.001zM16 0c-8.837 0-16 7.163-16 16s7.163 16 16 16c8.837 0 16-7.163 16-16v0c0-8.837-7.163-16-16-16v0zM11.862 18.72v0.16h8.366c0.006-0.024 0.010-0.051 0.010-0.080s-0.004-0.056-0.011-0.082l0 0.002v-0.137h-8.388zM11.862 18.268h8.458v-0.301h-8.548zM23.932 8.023c0-0.846-0.959-1.966-3.817-1.966h-8.074c-2.86 0-3.817 1.12-3.817 1.966 0 0-0.435 7.566-0.452 10.103 0 0.869 0.161 3.498 0.161 3.498 0 0.822 0 1.486 0.936 1.486v1.302c0 0.202 0.164 0.366 0.366 0.366v0h1.234c0.182-0.023 0.321-0.177 0.321-0.363 0-0.001 0-0.002 0-0.003v0-1.394h10.469v1.394c0.012 0.205 0.181 0.366 0.388 0.366 0 0 0 0 0.001 0h1.212c0.202 0 0.366-0.164 0.366-0.366v0-1.394c0.869 0 0.959-0.662 0.959-1.486 0 0 0.138-2.628 0.138-3.498 0-2.536-0.435-10.101-0.435-10.101zM12.869 6.743c0.009-0.115 0.093-0.207 0.203-0.229l0.002-0h5.83c0.131 0 0.239 0.1 0.251 0.228l0 0.001v0.783c0 0 0 0 0 0 0 0.126-0.101 0.229-0.227 0.23h-5.854c-0.007 0.001-0.014 0.001-0.022 0.001-0.118 0-0.216-0.090-0.228-0.205l-0-0.001s0-0.015 0-0.024zM9.12 9.645c0.013-0.545 0.458-0.982 1.005-0.983h4.571c0.006-0 0.014-0 0.021-0 0.548 0 0.994 0.437 1.008 0.982l0 0.001v3.635c-0.025 0.536-0.466 0.961-1.006 0.961-0.008 0-0.017-0-0.025-0l0.001 0h-1.257l1.505-1.505v0.893h0.411v-2.542h-0.406v1.204l-1.875 1.951h-2.949c-0.006 0-0.014 0-0.021 0-0.535 0-0.971-0.427-0.984-0.959l-0-0.001zM20.205 17.028c0.007-0 0.016-0.001 0.025-0.001 0.255 0 0.464 0.199 0.479 0.451l0 0.001c0.001 0.011 0.002 0.023 0.002 0.036s-0.001 0.025-0.002 0.038l0-0.002-0.16 1.204c0 0.278-0.225 0.503-0.503 0.503h-7.977c-0.278 0-0.503-0.225-0.503-0.503v0 0l-0.16-1.204c0-0 0-0.001 0-0.002 0-0.265 0.214-0.479 0.479-0.48h0.024zM16.801 16.092h0.301v0.301h-0.301zM18.468 16.092h0.274v0.301h-0.274zM20.114 16.092h0.301v0.301h-0.301zM11.862 16.092h0.301v0.301h-0.301zM13.509 16.092h0.301v0.301h-0.301zM15.154 16.092h0.206v0.301h-0.206zM10.309 16.393c-0.166 0-0.301-0.135-0.301-0.301s0.135-0.301 0.301-0.301c0.166 0 0.301 0.135 0.301 0.301v0c0 0.166-0.135 0.301-0.301 0.301v0 0zM10.61 18.13c-0.016 0.317-0.275 0.568-0.594 0.572h-0c-0.315-0.001-0.57-0.257-0.57-0.572 0 0 0 0 0 0v0c0.006-0.317 0.265-0.571 0.582-0.571 0.322 0 0.583 0.261 0.583 0.583 0 0.004-0 0.008-0 0.012v-0.001zM22.925 21.072c0 0.139-0.113 0.251-0.251 0.251v0h-13.303c-0.139 0-0.251-0.113-0.251-0.251v0-0.452c0-0.139 0.113-0.251 0.251-0.251v0h13.303c0.139 0 0.251 0.113 0.251 0.251v0zM22.012 17.553c0 0 0.001 0 0.002 0 0.328 0 0.593 0.265 0.593 0.593 0 0 0 0 0 0v0c-0.005 0.319-0.265 0.575-0.584 0.575-0.323 0-0.584-0.261-0.584-0.584 0-0.319 0.255-0.578 0.573-0.584h0.001zM21.44 16.113c0-0.166 0.135-0.301 0.301-0.301v0 0c0.166 0 0.301 0.135 0.301 0.301s-0.135 0.301-0.301 0.301c-0.166 0-0.301-0.135-0.301-0.301v0 0zM22.925 13.301c-0.012 0.533-0.448 0.961-0.983 0.961-0.008 0-0.016-0-0.024-0l0.001 0h-2.902l-1.943-1.964v-1.204h-0.301v2.53h0.301v-0.893l1.505 1.505h-1.257c-0.007 0-0.015 0-0.023 0-0.535 0-0.97-0.427-0.983-0.959l-0-0.001v-3.63c0.013-0.546 0.458-0.983 1.005-0.983 0 0 0 0 0 0h4.571c0 0 0 0 0 0 0.547 0 0.993 0.437 1.005 0.982l0 0.001zM11.749 17.326c-0.030 0.057-0.048 0.125-0.048 0.197 0 0.011 0 0.022 0.001 0.033l-0-0.001h8.686c0.006-0.028 0.009-0.059 0.009-0.092s-0.003-0.064-0.010-0.095l0.001 0.003z"></path>
</svg>
