<!-- Generated by IcoMoon.io -->
<svg version="1.1" xmlns="http://www.w3.org/2000/svg" width="32" height="32" viewBox="0 0 32 32">
<path d="M14.197 19.716c-0.096 0.016-0.168 0.099-0.168 0.199 0 0.012 0.001 0.024 0.003 0.036l-0-0.001c0 1.416-0.677 2.060-1.303 2.060-0.423-0.036-0.783-0.276-0.984-0.62l-0.003-0.006c-0.33-0.536-0.525-1.186-0.525-1.881 0-0.071 0.002-0.142 0.006-0.212l-0 0.010c-0.017-0.096-0.1-0.168-0.2-0.168s-0.183 0.072-0.2 0.167l-0 0.001c-0.004 0.067-0.006 0.144-0.006 0.223 0 0.77 0.212 1.489 0.581 2.105l-0.010-0.019c0.289 0.461 0.782 0.771 1.35 0.8l0.004 0c0.807 0 1.693-0.768 1.693-2.461 0.001-0.010 0.002-0.022 0.002-0.034s-0.001-0.024-0.002-0.035l0 0.001c-0.016-0.096-0.099-0.169-0.199-0.169-0.013 0-0.026 0.001-0.039 0.004l0.001-0zM16.683 5.79c0.195 0.122 0.363 0.26 0.512 0.417l0.001 0.001 0.266-0.753c-0.26 0.113-0.515 0.22-0.753 0.339zM16.051 6.118c-0.536 0.301-0.903 0.602-0.903 0.914v0.829h1.806v-0.829c0-0.31-0.372-0.616-0.903-0.914zM14.68 5.463l0.22 0.753 0.023 0.011c0.15-0.157 0.319-0.295 0.502-0.41l0.011-0.006c-0.242-0.126-0.497-0.233-0.756-0.346zM16.051 5.468c0.406-0.208 0.874-0.411 1.355-0.62l0.768-0.333c0.181-0.096 0.259-0.119 0.259-0.271s-0.417-0.464-1.178-0.464h-2.408c-0.763 0-1.18 0.396-1.18 0.464s0.084 0.175 0.259 0.271l0.763 0.333c0.483 0.209 0.951 0.42 1.364 0.62zM13.213 11.479l-0.394-0.418h-1.57l-0.39 0.418-0.005 5.536h2.358v-5.536zM16.063 19.081c-0 0-0.001 0-0.002 0-0.764 0-1.383 0.619-1.383 1.383s0.619 1.383 1.383 1.383c0.762 0 1.381-0.617 1.383-1.378v-0c0-0.002 0-0.004 0-0.006 0-0.763-0.619-1.382-1.382-1.382 0 0 0 0 0 0v0zM16.051 21.004c-0.283 0-0.513-0.23-0.513-0.513s0.23-0.513 0.513-0.513c0.283 0 0.513 0.23 0.513 0.513v0c0 0.283-0.23 0.513-0.513 0.513v0zM17.958 11.060h-3.668l-0.388 0.418v5.508h4.458l-0.012-5.514-0.39-0.412zM21.396 11.479l-0.39-0.418h-1.568l-0.39 0.418v5.508h2.36l-0.012-5.508zM16 0c-8.837 0-16 7.163-16 16s7.163 16 16 16c8.837 0 16-7.163 16-16 0-0.001 0-0.001 0-0.002v0c0-8.836-7.163-15.998-15.998-15.998-0.001 0-0.001 0-0.002 0h0zM21.024 7.375c0 0.792-0.642 1.434-1.434 1.434s-1.434-0.642-1.434-1.434c0-0.792 0.642-1.434 1.434-1.434v0c0.792 0 1.434 0.642 1.434 1.434v0zM14.522 7.901v-0.828l-0.622-1.941-0.175-0.072c-0.021-0.007-0.040-0.017-0.056-0.029l0.001 0c-0.334-0.135-0.571-0.442-0.602-0.809l-0-0.003c0-0.602 0.762-1.054 1.777-1.054h2.408l-0.029 0.023c1.016 0 1.777 0.452 1.777 1.061-0.030 0.371-0.268 0.679-0.596 0.81l-0.006 0.002-0.057 0.029-0.175 0.062-0.62 1.942v0.808l0.349 0.027c0.239 0.705 0.894 1.203 1.666 1.203 0.496 0 0.943-0.206 1.262-0.536l0-0.001c0.689 0.301 1.096 0.655 1.096 1.043h-11.79c0-0.834 1.862-1.534 4.39-1.737zM12.823 24.774l-1.246 2.422c-0.116 0.196-0.324 0.327-0.564 0.333h-1.412c-0.203 0-0.265-0.129-0.135-0.287l2.038-2.512c0.152-0.164 0.363-0.271 0.599-0.287l0.003-0h0.507c0.211 0 0.301 0.146 0.211 0.333zM11.497 23.855c0 0 0 0 0 0-0.733 0-1.329-0.593-1.332-1.326v-12.342h11.778v12.341c-0.003 0.733-0.598 1.326-1.332 1.326 0 0 0 0 0 0v0zM22.417 27.529h-1.422c-0.24-0.006-0.448-0.136-0.563-0.33l-0.002-0.003-1.242-2.422c-0.028-0.035-0.045-0.080-0.045-0.129 0-0.115 0.093-0.208 0.208-0.208 0.014 0 0.028 0.001 0.042 0.004l-0.001-0h0.507c0.239 0.017 0.45 0.124 0.602 0.287l0.001 0.001 2.057 2.512c0.129 0.158 0.068 0.287-0.141 0.287z"></path>
</svg>
