<!-- Generated by IcoMoon.io -->
<svg version="1.1" xmlns="http://www.w3.org/2000/svg" width="32" height="32" viewBox="0 0 32 32">
<path d="M13.509 16.092h0.297v0.297h-0.297v-0.297zM11.862 16.092h0.297v0.297h-0.297v-0.297zM20.114 16.092h0.297v0.297h-0.297v-0.297zM15.154 16.092h0.206v0.297h-0.206v-0.297zM16.799 16.092h0.297v0.297h-0.297v-0.297zM11.891 17.073c0 0 0 0 0 0-0.264 0-0.479 0.214-0.479 0.479 0 0.001 0 0.001 0 0.002v-0l0.16 1.204c-0 0.002-0 0.005-0 0.008 0 0.275 0.222 0.499 0.497 0.501h7.978c0.278 0 0.503-0.225 0.503-0.503v0l0.16-1.204c0.001-0.011 0.002-0.023 0.002-0.035s-0.001-0.025-0.002-0.037l0 0.002c-0.015-0.253-0.224-0.452-0.479-0.452-0.009 0-0.017 0-0.026 0.001l0.001-0-8.297 0.047zM20.234 18.879h-8.372v-0.16l-0.023-0.137h8.388v0.137c0.006 0.024 0.009 0.052 0.009 0.080s-0.003 0.056-0.009 0.082l0-0.002zM20.326 18.262h-8.464l-0.092-0.301h8.549zM20.394 17.371c0.006 0.027 0.010 0.059 0.010 0.091s-0.004 0.064-0.011 0.094l0.001-0.003h-8.691c-0.001-0.009-0.001-0.020-0.001-0.031 0-0.071 0.017-0.139 0.047-0.198l-0.001 0.003zM10.125 14.239h2.949l1.874-1.942v-1.204h0.412v2.529h-0.412v-0.891l-1.505 1.505h1.257c0.008 0 0.016 0 0.025 0 0.539 0 0.979-0.424 1.004-0.957l0-0.002v-3.632c-0.014-0.546-0.46-0.983-1.008-0.983-0.008 0-0.015 0-0.023 0l0.001-0h-4.574c-0 0-0 0-0 0-0.547 0-0.993 0.437-1.005 0.982l-0 0.001v3.635c0.012 0.532 0.447 0.959 0.981 0.959 0.009 0 0.017-0 0.026-0l-0.001 0zM10.309 15.794c-0.166 0-0.301 0.135-0.301 0.301s0.135 0.301 0.301 0.301c0.166 0 0.301-0.135 0.301-0.301v0c0-0.166-0.135-0.301-0.301-0.301v0zM18.468 16.092h0.274v0.297h-0.274v-0.297zM22.034 16.114c0-0.166-0.135-0.301-0.301-0.301s-0.301 0.135-0.301 0.301c0 0.166 0.135 0.301 0.301 0.301v0c0.166 0 0.301-0.135 0.301-0.301v0zM21.897 8.662h-4.571c-0 0-0 0-0 0-0.548 0-0.993 0.437-1.007 0.982l-0 0.001v3.635c0.013 0.533 0.448 0.959 0.983 0.959 0.009 0 0.017-0 0.026-0l-0.001 0h1.257l-1.505-1.505v0.888h-0.301v-2.536h0.301v1.204l1.943 1.966h2.903c0.007 0 0.015 0 0.023 0 0.535 0 0.97-0.427 0.983-0.959l0-0.001-0.023-3.658c-0.017-0.542-0.46-0.975-1.005-0.975-0.002 0-0.003 0-0.005 0h0zM16 0c-8.837 0-16 7.163-16 16s7.163 16 16 16c8.837 0 16-7.163 16-16v0c0-8.837-7.163-16-16-16v0zM24.182 21.532c0 0.822-0.092 1.486-0.96 1.486v1.394c0 0.202-0.164 0.366-0.366 0.366v0h-1.204c-0 0-0 0-0.001 0-0.207 0-0.376-0.161-0.389-0.365l-0-0.001v-1.394h-10.473v1.394c0 0 0 0.001 0 0.001 0 0.186-0.139 0.34-0.319 0.364l-0.002 0h-1.234c-0.202 0-0.366-0.164-0.366-0.366v0-1.303c-0.938 0-0.938-0.662-0.938-1.486 0 0-0.16-2.628-0.16-3.497 0.023-2.538 0.452-10.103 0.452-10.103 0-0.846 0.96-1.966 3.817-1.966h8.068c2.86 0 3.817 1.12 3.817 1.966l-0.045-0.092s0.433 7.566 0.433 10.103c0.006 0.869-0.131 3.498-0.131 3.498zM10.011 17.553c-0.309 0.016-0.555 0.263-0.57 0.571l-0 0.001c0 0 0 0 0 0 0 0.315 0.255 0.571 0.57 0.572h0c0.316 0 0.572-0.256 0.572-0.572s-0.256-0.572-0.572-0.572v0zM13.074 7.749h5.852c0.124-0.001 0.224-0.1 0.227-0.222v-0.783c-0.011-0.129-0.118-0.229-0.249-0.229-0.001 0-0.002 0-0.003 0h-5.828c-0.112 0.021-0.197 0.114-0.206 0.228l-0 0.001-0.045 0.783c-0 0.004-0.001 0.008-0.001 0.012s0 0.008 0.001 0.013l-0-0.001c0.015 0.113 0.111 0.2 0.227 0.2 0.009 0 0.017-0 0.025-0.001l-0.001 0zM21.906 18.614c0.019 0.002 0.041 0.004 0.063 0.004 0.294 0 0.533-0.239 0.533-0.533s-0.239-0.533-0.533-0.533c-0.294 0-0.533 0.239-0.533 0.533 0 0.022 0.001 0.044 0.004 0.065l-0-0.003c0.048 0.236 0.231 0.419 0.463 0.466l0.004 0.001zM9.371 20.365h13.303c0.139 0 0.251 0.113 0.251 0.251v0.458c0 0.139-0.113 0.251-0.251 0.251h-13.303c-0.139 0-0.251-0.113-0.251-0.251v-0.458c0-0.139 0.113-0.251 0.251-0.251z"></path>
</svg>
