<!-- Generated by IcoMoon.io -->
<svg version="1.1" xmlns="http://www.w3.org/2000/svg" width="32" height="32" viewBox="0 0 32 32">
<path d="M16 0c-8.837 0-16 7.163-16 16s7.163 16 16 16c8.837 0 16-7.163 16-16 0-0.001 0-0.001 0-0.002v0c-0.013-8.831-7.169-15.987-15.999-15.998h-0.001zM16 30.588c-0.001 0-0.002 0-0.003 0-8.057 0-14.588-6.531-14.588-14.588s6.531-14.588 14.588-14.588c8.056 0 14.587 6.53 14.588 14.587v0c0 0.002 0 0.004 0 0.006 0 8.054-6.529 14.584-14.584 14.584-0.001 0-0.001 0-0.002 0h0zM9.463 26.375c-0.129 0.16-0.066 0.289 0.138 0.289h1.424c0.232-0.013 0.432-0.141 0.543-0.328l0.002-0.003 1.246-2.426c0.026-0.034 0.041-0.078 0.041-0.125 0-0.116-0.094-0.209-0.209-0.209-0.012 0-0.025 0.001-0.037 0.003l0.001-0h-0.506c-0.239 0.017-0.45 0.125-0.601 0.288l-0.001 0.001zM19.387 23.576c-0.011-0.002-0.023-0.003-0.035-0.003-0.116 0-0.209 0.094-0.209 0.209 0 0.047 0.016 0.090 0.042 0.125l-0-0.001 1.246 2.434c0.113 0.19 0.312 0.318 0.542 0.331l0.002 0h1.425c0.205 0 0.268-0.129 0.138-0.289l-2.034-2.509c-0.151-0.166-0.362-0.275-0.599-0.29l-0.003-0zM21.76 9.848c0-1.001-0.947-1.814-2.107-1.814h-3.186v-0.509c0.001-0.206 0.167-0.372 0.373-0.373h1.143c0.228-0.013 0.422-0.147 0.519-0.34l0.002-0.004 0.826-1.909c0.098-0.197 0.293-0.332 0.521-0.343l0.001-0h0.245c0.206-0.001 0.373-0.168 0.373-0.375 0-0.001 0-0.001 0-0.002v0-0.128c-0.001-0.206-0.167-0.372-0.373-0.373h-8.137c-0.205 0.003-0.369 0.168-0.37 0.373v0.128c0.001 0.206 0.167 0.372 0.373 0.373h0.125c0.229 0.012 0.423 0.147 0.519 0.34l0.002 0.004 0.825 1.909c0.098 0.195 0.292 0.33 0.518 0.343l0.002 0h1.266c0.206 0.001 0.373 0.168 0.373 0.375 0 0.001 0 0.001 0 0.002v-0 0.512h-3.235c-1.171-0.003-2.122 0.81-2.122 1.811l-0.807 5.655v4.35l0.218 1.416h0.018c0.096 0.926 0.992 1.656 2.098 1.656h8.417c1.102 0 1.999-0.729 2.094-1.656h0.018l0.28-1.314v-4.452zM14.49 6.275c-0.228-0.011-0.422-0.147-0.515-0.341l-0.002-0.004-0.427-1.031c-0.019-0.033-0.030-0.072-0.030-0.115 0-0.128 0.104-0.232 0.232-0.232 0.010 0 0.020 0.001 0.030 0.002l-0.001-0h4.38c0.009-0.001 0.019-0.002 0.029-0.002 0.128 0 0.232 0.104 0.232 0.232 0 0.042-0.011 0.082-0.031 0.116l0.001-0.001-0.426 1.031c-0.095 0.197-0.288 0.334-0.515 0.345l-0.001 0zM15.995 9.004c0.499 0 0.903 0.404 0.903 0.903s-0.404 0.903-0.903 0.903c-0.499 0-0.903-0.404-0.903-0.903v0c0 0 0 0 0 0 0-0.499 0.404-0.903 0.903-0.903 0.002 0 0.003 0 0.005 0h-0zM12.412 21.045c-0.628 0-1.138-0.509-1.138-1.138s0.509-1.138 1.138-1.138c0.628 0 1.138 0.509 1.138 1.138v0c0 0 0 0.001 0 0.002 0 0.627-0.507 1.135-1.133 1.136h-0zM19.545 21.045c-0.628 0-1.138-0.509-1.138-1.138s0.509-1.138 1.138-1.138c0.628 0 1.138 0.509 1.138 1.138v0c0 0 0 0 0 0 0 0.627-0.507 1.135-1.133 1.138h-0zM20.659 15.753h-9.332c-0.42 0-0.762-0.224-0.762-0.509l0.397-3.174c0-0.281 0.343-0.509 0.762-0.509h8.527c0.42 0 0.763 0.227 0.763 0.509l0.409 3.174c0.003 0.284-0.34 0.509-0.76 0.509z"></path>
</svg>
