<!-- Generated by IcoMoon.io -->
<svg version="1.1" xmlns="http://www.w3.org/2000/svg" width="32" height="32" viewBox="0 0 32 32">
<path d="M12.582 15.753h8.081c0.42 0 0.763-0.224 0.763-0.509l-0.409-3.174c0-0.281-0.343-0.509-0.763-0.509h-8.527c-0.418 0-0.762 0.227-0.762 0.509l-0.397 3.174c0 0.284 0.34 0.509 0.762 0.509zM16 10.822c0.499-0 0.903-0.404 0.903-0.903s-0.404-0.903-0.903-0.903c-0.496 0-0.899 0.4-0.903 0.895v0c-0 0.002-0 0.005-0 0.008 0 0.499 0.404 0.903 0.903 0.903 0 0 0 0 0 0v0zM17.963 5.929l0.426-1.030c0.019-0.033 0.030-0.072 0.030-0.115 0-0.128-0.104-0.232-0.232-0.232-0.010 0-0.020 0.001-0.030 0.002l0.001-0h-4.38c-0.009-0.001-0.020-0.002-0.030-0.002-0.128 0-0.232 0.104-0.232 0.232 0 0.042 0.011 0.082 0.031 0.116l-0.001-0.001 0.426 1.030c0.094 0.198 0.288 0.335 0.515 0.346l0.001 0h2.956c0.229-0.011 0.423-0.148 0.516-0.343l0.002-0.004zM20.687 19.907c0-0.628-0.509-1.138-1.138-1.138s-1.138 0.509-1.138 1.138c0 0.628 0.509 1.138 1.138 1.138v0c0.628 0 1.138-0.509 1.138-1.138v0zM15.998 0c-8.836 0.001-15.998 7.164-15.998 16s7.163 16 16 16 16-7.163 16-16v0c-0.010-8.833-7.168-15.991-16.001-16h-0.001zM12.815 23.907l-1.245 2.434c-0.113 0.19-0.313 0.318-0.543 0.331l-0.002 0h-1.424c-0.205 0-0.268-0.129-0.138-0.289l2.037-2.518c0.151-0.166 0.363-0.273 0.599-0.289l0.003-0h0.512c0.010-0.002 0.022-0.003 0.034-0.003 0.116 0 0.209 0.094 0.209 0.209 0 0.047-0.015 0.090-0.042 0.125l0-0.001zM11.761 22.918c-1.106 0-2.002-0.729-2.098-1.656h-0.018l-0.218-1.416v-4.342l0.808-5.655c0-1.001 0.947-1.814 2.118-1.814h3.235v-0.509c-0.001-0.206-0.167-0.372-0.373-0.373h-1.261c-0.229-0.012-0.424-0.147-0.521-0.34l-0.002-0.004-0.825-1.912c-0.098-0.196-0.292-0.331-0.519-0.343l-0.002-0h-0.125c-0.205-0.003-0.369-0.168-0.37-0.373v-0.128c0.001-0.206 0.167-0.372 0.373-0.373h8.137c0.205 0.003 0.369 0.168 0.37 0.373v0.128c-0.001 0.206-0.167 0.372-0.373 0.373h-0.245c-0.229 0.012-0.423 0.146-0.521 0.338l-0.002 0.004-0.826 1.91c-0.098 0.196-0.293 0.33-0.519 0.343l-0.002 0h-1.142c0 0 0 0 0 0-0.206 0-0.373 0.167-0.373 0.373 0 0.001 0 0.002 0 0.003v-0 0.512h3.179c1.168 0 2.107 0.813 2.107 1.814l0.825 5.652v4.452l-0.28 1.314h-0.021c-0.095 0.926-0.992 1.656-2.094 1.656zM22.397 26.664h-1.425c-0.232-0.013-0.43-0.141-0.542-0.328l-0.002-0.003-1.246-2.426c-0.026-0.034-0.041-0.078-0.041-0.125 0-0.116 0.094-0.209 0.209-0.209 0.012 0 0.025 0.001 0.037 0.003l-0.001-0h0.509c0.24 0.015 0.451 0.123 0.601 0.288l0.001 0.001 2.034 2.509c0.137 0.161 0.074 0.291-0.131 0.291zM12.416 18.771c-0.628 0-1.138 0.509-1.138 1.138s0.509 1.138 1.138 1.138c0.628 0 1.138-0.509 1.138-1.138 0-0.001 0-0.001 0-0.002v0c-0.001-0.628-0.51-1.136-1.138-1.136 0 0 0 0 0 0v0z"></path>
</svg>
