<!-- Generated by IcoMoon.io -->
<svg version="1.1" xmlns="http://www.w3.org/2000/svg" width="32" height="32" viewBox="0 0 32 32">
<path d="M9.543 9.736h12.885c0.274-0.001 0.495-0.223 0.495-0.497 0 0 0 0 0 0v0-0.548c0-0.274-0.222-0.495-0.495-0.495h-12.885c0 0 0 0 0 0-0.274 0-0.496 0.222-0.497 0.495v0.548c0.002 0.274 0.223 0.495 0.497 0.497h0zM12.978 20.733c-0.136-0.258-0.396-0.435-0.699-0.451l-0.002-0h-2.723c-0.274 0.001-0.495 0.223-0.495 0.497 0 0 0 0 0 0v0 0.903c0 0.274 0.222 0.497 0.497 0.497v0h3.585c0.009 0.001 0.019 0.001 0.029 0.001 0.166 0 0.301-0.135 0.301-0.301 0-0.056-0.015-0.108-0.042-0.153l0.001 0.001zM16.001 0c-8.837 0-16.001 7.164-16.001 16.001s7.164 16.001 16.001 16.001c8.837 0 16.001-7.164 16.001-16.001 0-0.001 0-0.001 0-0.002v0c0-8.836-7.163-15.999-15.999-15.999-0.001 0-0.001 0-0.002 0h0zM24.468 21.736c-0.017 0.835-0.698 1.505-1.535 1.505-0.009 0-0.017-0-0.026-0l0.001 0h-0.54v1.389c-0.001 0.206-0.168 0.372-0.373 0.372 0 0 0 0 0 0h-1.233c0 0 0 0 0 0-0.206 0-0.372-0.166-0.373-0.372v-1.389h-8.783v1.389c-0.001 0.206-0.168 0.372-0.373 0.372 0 0 0 0 0 0h-1.233c-0.202-0.005-0.363-0.168-0.366-0.37v-1.39h-0.551c-0.007 0-0.015 0-0.023 0-0.838 0-1.518-0.671-1.534-1.506l-0-0.001v-13.377c0.016-0.835 0.696-1.505 1.534-1.505 0.008 0 0.016 0 0.024 0h13.824c0.008-0 0.017-0 0.026-0 0.837 0 1.518 0.671 1.534 1.504l0 0.002zM22.451 20.282h-2.723c-0.305 0.017-0.565 0.194-0.699 0.447l-0.002 0.005-0.452 0.992c-0.026 0.044-0.041 0.096-0.041 0.152 0 0.166 0.135 0.301 0.301 0.301 0.010 0 0.020-0 0.030-0.002l-0.001 0h3.587c0.274-0.001 0.495-0.223 0.495-0.497 0 0 0 0 0 0v0-0.903c-0.001-0.273-0.222-0.494-0.495-0.495h-0zM22.926 18.457v-6.661c-0.012-0.542-0.454-0.977-0.998-0.977-0.006 0-0.013 0-0.019 0h-11.824c-0.005-0-0.012-0-0.018-0-0.544 0-0.986 0.435-0.998 0.976l-0 0.001v6.661c0.012 0.54 0.453 0.974 0.995 0.974 0.008 0 0.015-0 0.022-0l-0.001 0h11.827c0.006 0 0.013 0 0.020 0 0.542 0 0.983-0.434 0.995-0.973l0-0.001z"></path>
</svg>
