<!-- Generated by IcoMoon.io -->
<svg version="1.1" xmlns="http://www.w3.org/2000/svg" width="32" height="32" viewBox="0 0 32 32">
<path d="M28.083 0h-24.291c-0.012-0-0.026-0-0.040-0-1.471 0-2.666 1.178-2.694 2.642l-0 0.003v23.508c0.027 1.466 1.222 2.645 2.692 2.645 0.015 0 0.030-0 0.045-0l-0.002 0h0.968v2.441c0.002 0.362 0.294 0.654 0.656 0.656h2.166c0.362-0.002 0.654-0.294 0.656-0.656v-2.439h15.418v2.441c0.002 0.362 0.294 0.654 0.656 0.656h2.166c0.362-0.002 0.654-0.294 0.656-0.656v-2.441h0.949c0.014 0 0.029 0 0.045 0 1.471 0 2.666-1.178 2.694-2.642l0-0.003v-23.511c-0.028-1.467-1.224-2.645-2.694-2.645-0.016 0-0.032 0-0.048 0l0.002-0zM3.729 3.237c0.002-0.481 0.391-0.871 0.873-0.873h22.638c0.481 0.002 0.87 0.392 0.87 0.873 0 0 0 0 0 0v0 0.963c-0.002 0.48-0.39 0.869-0.87 0.87h-22.638c-0.48-0.002-0.87-0.39-0.873-0.87v-0zM10.922 26.928h-6.3c-0.481-0.002-0.871-0.391-0.873-0.873v-1.587c0.002-0.48 0.39-0.869 0.87-0.87h4.784c0.536 0.030 0.992 0.34 1.229 0.785l0.004 0.008 0.793 1.745c0.044 0.076 0.071 0.167 0.071 0.264 0 0.292-0.237 0.529-0.529 0.529-0.017 0-0.035-0.001-0.052-0.003l0.002 0zM5.554 22.106c-0.010 0-0.023 0-0.035 0-0.953 0-1.727-0.762-1.748-1.709l-0-0.002v-11.705c0.019-0.951 0.794-1.714 1.748-1.714 0.012 0 0.024 0 0.037 0l-0.002-0h20.776c0.010-0 0.023-0 0.035-0 0.954 0 1.73 0.763 1.75 1.712l0 0.002v11.705c-0.021 0.95-0.795 1.711-1.748 1.711-0.013 0-0.026-0-0.039-0l0.002 0h-20.776zM28.155 26.055c-0.002 0.481-0.391 0.871-0.873 0.873h-6.305c-0.015 0.002-0.033 0.002-0.051 0.002-0.292 0-0.529-0.237-0.529-0.529 0-0.098 0.027-0.191 0.074-0.269l-0.001 0.002 0.793-1.745c0.24-0.453 0.697-0.764 1.229-0.793l0.004-0h4.784c0.48 0.002 0.869 0.39 0.87 0.87v0z"></path>
</svg>
