<!-- Generated by IcoMoon.io -->
<svg version="1.1" xmlns="http://www.w3.org/2000/svg" width="32" height="32" viewBox="0 0 32 32">
<path d="M17.982 6.649l0.427-1.031c0.021-0.034 0.033-0.075 0.033-0.12 0-0.128-0.104-0.232-0.232-0.232-0.011 0-0.022 0.001-0.033 0.002l0.001-0h-4.38c-0.009-0.001-0.019-0.002-0.029-0.002-0.128 0-0.232 0.104-0.232 0.232 0 0.042 0.011 0.082 0.031 0.116l-0.001-0.001 0.431 1.036c0.095 0.197 0.288 0.334 0.515 0.345l0.001 0h2.946c0.23-0.009 0.425-0.146 0.519-0.341l0.002-0.004zM10.46 18.816h1.355v-5.923h-1.355c-0.452 0-0.822 0.245-0.822 0.548v4.833c-0.005 0.306 0.369 0.542 0.822 0.542zM12.786 11.502h6.473c0.018 0.002 0.039 0.004 0.060 0.004 0.268 0 0.485-0.217 0.485-0.485s-0.217-0.485-0.485-0.485c-0.021 0-0.042 0.001-0.063 0.004l0.002-0h-6.473c-0.018-0.002-0.039-0.004-0.060-0.004-0.268 0-0.485 0.217-0.485 0.485s0.217 0.485 0.485 0.485c0.021 0 0.042-0.001 0.063-0.004l-0.002 0zM22.366 18.274v-4.833c0-0.301-0.369-0.548-0.822-0.548h-1.313v5.923h1.313c0.453 0 0.822-0.236 0.822-0.542zM12.624 20.209h-2.651c-0.001-0-0.003-0-0.005-0-0.185 0-0.336 0.15-0.336 0.336 0 0 0 0 0 0v0 0.753c0 0 0 0 0 0 0 0.186 0.15 0.336 0.336 0.337h2.655c0.186-0.001 0.336-0.151 0.336-0.337 0 0 0 0 0 0v0-0.753c0-0.185-0.15-0.336-0.336-0.336v0zM15.999 0c-8.836 0.001-15.999 7.164-15.999 16.001s7.164 16.001 16.001 16.001c8.836 0 16-7.163 16.001-15.999v-0c-0.009-8.834-7.168-15.993-16.001-16.002h-0.001zM12.263 24.415l-1.465 2.86c-0.113 0.19-0.312 0.318-0.542 0.331l-0.002 0h-1.728c-0.205 0-0.266-0.131-0.138-0.289l2.384-2.94c0.151-0.166 0.362-0.274 0.599-0.29l0.003-0h0.68c0.011-0.002 0.025-0.003 0.038-0.003 0.116 0 0.209 0.094 0.209 0.209 0 0.046-0.015 0.088-0.040 0.123l0-0.001zM11.199 23.417c-1.194 0-2.16-0.786-2.258-1.784h-0.020v-10.588c0-1.078 1.021-1.957 2.282-1.957h4.412v-0.847c-0.001-0.206-0.167-0.372-0.373-0.373h-1.271c-0.228-0.012-0.422-0.146-0.519-0.338l-0.002-0.004-0.825-1.91c-0.097-0.197-0.292-0.334-0.519-0.348l-0.002-0h-0.125c-0.206-0.001-0.372-0.167-0.373-0.373v-0.124c0.001-0.206 0.167-0.372 0.373-0.373h8.137c0.206 0.001 0.372 0.167 0.373 0.373v0.128c-0.003 0.204-0.169 0.368-0.373 0.369h-0.248c-0.228 0.013-0.422 0.148-0.519 0.34l-0.002 0.004-0.825 1.915c-0.099 0.195-0.293 0.33-0.519 0.342l-0.002 0h-1.144c-0.206 0.001-0.372 0.167-0.373 0.373v0.851h4.323c1.257 0 2.279 0.876 2.279 1.957v10.588h-0.021c-0.102 0.998-1.069 1.784-2.258 1.784zM23.482 27.602h-1.736c-0.232-0.013-0.431-0.141-0.542-0.328l-0.002-0.003-1.465-2.86c-0.027-0.035-0.043-0.079-0.043-0.127 0-0.116 0.094-0.209 0.209-0.209 0.013 0 0.026 0.001 0.038 0.003l-0.001-0h0.68c0.242 0.014 0.457 0.123 0.609 0.29l0.001 0.001 2.38 2.94c0.129 0.163 0.068 0.294-0.129 0.294zM22.366 21.296v-0.753c0 0 0 0 0 0 0-0.185-0.15-0.336-0.336-0.336-0.001 0-0.001 0-0.002 0h-2.649c-0 0-0.001 0-0.002 0-0.185 0-0.336 0.15-0.336 0.336 0 0 0 0 0 0v0 0.753c0 0.186 0.151 0.337 0.337 0.337v0h2.649c0.186-0.001 0.336-0.151 0.337-0.337v-0zM19.357 12.892h-6.674v5.929h6.674v-5.929z"></path>
</svg>
