<!-- Generated by IcoMoon.io -->
<svg version="1.1" xmlns="http://www.w3.org/2000/svg" width="32" height="32" viewBox="0 0 32 32">
<path d="M16.002 1.413c8.054 0.003 14.582 6.532 14.582 14.587 0 8.056-6.531 14.587-14.587 14.587s-14.586-6.53-14.587-14.585v-0c0-0 0-0.001 0-0.002 0-8.056 6.531-14.587 14.587-14.587 0.002 0 0.003 0 0.005 0h-0zM16.002 0c-0 0-0.001 0-0.002 0-8.837 0-16 7.163-16 16s7.163 16 16 16c8.836 0 15.999-7.163 16-15.998v-0c-0.010-8.832-7.167-15.99-15.997-16.002h-0.001zM8.388 27.311c-0.129 0.16-0.066 0.291 0.138 0.291h1.728c0.232-0.014 0.431-0.142 0.542-0.33l0.002-0.003 1.465-2.86c0.023-0.033 0.038-0.075 0.038-0.12 0-0.116-0.094-0.209-0.209-0.209-0.011 0-0.021 0.001-0.031 0.002l0.001-0h-0.68c-0.24 0.016-0.451 0.125-0.601 0.29l-0.001 0.001zM21.23 24.373c-0.153-0.168-0.367-0.276-0.607-0.29l-0.002-0h-0.68c-0.010-0.002-0.021-0.003-0.033-0.003-0.116 0-0.211 0.094-0.211 0.211 0 0.047 0.015 0.090 0.041 0.125l-0-0.001 1.465 2.86c0.113 0.19 0.312 0.319 0.542 0.333l0.002 0h1.735c0.205 0 0.268-0.131 0.138-0.291zM20.808 9.091h-4.323v-0.85c0.001-0.206 0.167-0.372 0.373-0.373h1.143c0.229-0.012 0.423-0.146 0.521-0.338l0.002-0.004 0.826-1.91c0.097-0.197 0.291-0.333 0.517-0.348l0.002-0h0.245c0.206-0.001 0.372-0.167 0.373-0.373v-0.124c-0.001-0.206-0.167-0.372-0.373-0.373h-8.134c-0.206 0.001-0.372 0.167-0.373 0.373v0.128c0.003 0.204 0.169 0.368 0.373 0.369h0.125c0.228 0.013 0.422 0.147 0.519 0.34l0.002 0.004 0.825 1.915c0.099 0.195 0.293 0.33 0.519 0.342l0.002 0h1.266c0.206 0.001 0.372 0.167 0.373 0.373v0.851h-4.412c-1.261 0-2.282 0.876-2.282 1.957v10.587h0.020c0.102 0.998 1.069 1.784 2.258 1.784h9.609c1.189 0 2.155-0.786 2.258-1.784h0.021v-10.59c0.005-1.078-1.017-1.954-2.274-1.954zM14.51 6.993c-0.226-0.013-0.418-0.149-0.51-0.341l-0.002-0.004-0.426-1.031c-0.021-0.034-0.033-0.075-0.033-0.119 0-0.128 0.104-0.232 0.232-0.232 0.009 0 0.019 0.001 0.028 0.002l-0.001-0h4.38c0.009-0.001 0.019-0.002 0.029-0.002 0.128 0 0.232 0.104 0.232 0.232 0 0.042-0.011 0.082-0.031 0.116l0.001-0.001-0.427 1.031c-0.094 0.2-0.29 0.339-0.52 0.349l-0.001 0zM12.785 10.536h6.472c0.018-0.002 0.039-0.004 0.060-0.004 0.268 0 0.485 0.217 0.485 0.485s-0.217 0.485-0.485 0.485c-0.021 0-0.042-0.001-0.063-0.004l0.002 0h-6.472c-0.018 0.002-0.039 0.004-0.060 0.004-0.268 0-0.485-0.217-0.485-0.485s0.217-0.485 0.485-0.485c0.021 0 0.042 0.001 0.063 0.004l-0.002-0zM9.633 13.441c0-0.301 0.369-0.549 0.822-0.549h1.355v5.923h-1.355c-0.452 0-0.822-0.242-0.822-0.548zM12.96 21.297c-0.001 0.185-0.151 0.335-0.336 0.336h-2.651c-0.001 0-0.002 0-0.003 0-0.186 0-0.336-0.15-0.337-0.336v-0.753c0-0.185 0.15-0.336 0.336-0.336v0h2.655c0.185 0 0.336 0.15 0.336 0.336v0zM12.683 18.815v-5.923h6.674v5.923h-6.674zM22.365 21.291c-0.002 0.185-0.152 0.335-0.337 0.336h-2.649c-0.185 0-0.336-0.15-0.336-0.336v0-0.753c0-0.185 0.15-0.336 0.336-0.336v0h2.649c0 0 0 0 0 0 0.186 0 0.336 0.15 0.337 0.336v0zM22.365 18.267c0 0.301-0.369 0.548-0.822 0.548h-1.313v-5.923h1.313c0.452 0 0.822 0.247 0.822 0.549z"></path>
</svg>
