<!-- Generated by IcoMoon.io -->
<svg version="1.1" xmlns="http://www.w3.org/2000/svg" width="32" height="32" viewBox="0 0 32 32">
<path d="M15.998 1.412c8.055 0.002 14.584 6.532 14.584 14.587 0 8.056-6.531 14.587-14.587 14.587s-14.586-6.53-14.587-14.585v-0c0-8.057 6.531-14.588 14.588-14.588 0.001 0 0.001 0 0.002 0h-0zM15.998 0c-8.837 0-16 7.163-16 16s7.163 16 16 16c8.837 0 16-7.163 16-16v0c-0.010-8.832-7.168-15.99-15.999-16h-0.001zM10.235 14.099h-2.258v5.87h-1.967v-5.87h-2.258v-1.696h6.483zM12.255 12.403h2.002l2.833 7.568h-2.058l-0.468-1.355h-2.639l-0.477 1.355h-2.026zM12.382 17.159h1.719l-0.84-2.66h-0.015zM20.001 15.994l-2.471-3.591h2.324l1.269 2.348 1.355-2.351h2.246l-2.446 3.594 2.672 3.977h-2.404l-1.422-2.521-1.546 2.521h-2.267zM25.508 12.403h1.972v7.568h-1.972z"></path>
</svg>
