<!-- Generated by IcoMoon.io -->
<svg version="1.1" xmlns="http://www.w3.org/2000/svg" width="32" height="32" viewBox="0 0 32 32">
<path d="M13.24 14.499l-0.858 2.654h1.717l-0.838-2.654h-0.021zM15.998 0c-8.837 0-16.001 7.164-16.001 16.001s7.164 16.001 16.001 16.001c8.837 0 16.001-7.164 16.001-16.001 0-0.001 0-0.001 0-0.002v0c-0.010-8.833-7.168-15.99-16-15.999h-0.001zM7.977 19.971h-1.967v-5.87h-2.258v-1.699h6.482v1.696h-2.258zM15.027 19.971l-0.468-1.355h-2.634l-0.477 1.355h-2.024l2.831-7.569h2.003l2.831 7.569zM22.537 19.971l-1.421-2.523-1.547 2.523h-2.261l2.694-3.976-2.473-3.593h2.322l1.27 2.348 1.347-2.352h2.246l-2.44 3.597 2.673 3.976zM25.501 19.971v-7.569h1.973v7.569z"></path>
</svg>
