<!-- Generated by IcoMoon.io -->
<svg version="1.1" xmlns="http://www.w3.org/2000/svg" width="32" height="32" viewBox="0 0 32 32">
<path d="M20.672 6.195h-9.343v19.609h9.343zM15.037 7.074h2.006v2.005h-2.006zM15.037 9.811h2.006v2.006h-2.006zM15.037 12.547h2.006v2.006h-2.006zM12.251 7.074h2.005v2.005h-2.005zM12.251 9.811h2.005v2.006h-2.005zM12.251 12.547h2.005v2.006h-2.005zM13.383 18.116l2.657-2.387 2.658 2.387zM19.781 14.554h-2.008v-2.006h2.008zM19.781 11.817h-2.008v-2.006h2.008zM19.781 9.079h-2.008v-2.005h2.008zM16 0c-8.836 0.001-15.998 7.164-15.998 16s7.163 16 16 16 16-7.163 16-16v0c-0.009-8.833-7.168-15.991-16.001-16h-0.001zM21.419 26.551h-10.837v-21.103h10.837z"></path>
</svg>
