<!-- Generated by IcoMoon.io -->
<svg version="1.1" xmlns="http://www.w3.org/2000/svg" width="32" height="32" viewBox="0 0 32 32">
<path d="M16 1.493c8.012 0 14.507 6.495 14.507 14.507s-6.495 14.507-14.507 14.507c-8.012 0-14.507-6.495-14.507-14.507v0c0.009-8.008 6.499-14.497 14.506-14.507h0.001zM16 0c-8.837 0-16 7.163-16 16s7.163 16 16 16c8.837 0 16-7.163 16-16v0c0-8.837-7.163-16-16-16v0zM12.249 7.074h2.005v2.005h-2.005v-2.005zM15.035 7.074h2.008v2.005h-2.008v-2.005zM17.772 7.074h2.008v2.005h-2.008v-2.005zM12.249 9.811h2.005v2.005h-2.005v-2.005zM15.035 9.811h2.008v2.005h-2.008v-2.005zM17.772 9.811h2.008v2.005h-2.008v-2.005zM12.249 12.547h2.005v2.006h-2.005v-2.006zM15.035 12.547h2.008v2.006h-2.008v-2.006zM17.772 12.547h2.008v2.006h-2.008v-2.006zM13.383 18.116l2.657-2.387 2.657 2.387h-5.313zM20.671 6.195v19.609h-9.341v-19.609h9.341zM21.423 5.443h-10.837v21.109h10.837v-21.103z"></path>
</svg>
