<!-- Generated by IcoMoon.io -->
<svg version="1.1" xmlns="http://www.w3.org/2000/svg" width="32" height="32" viewBox="0 0 32 32">
<path d="M16 1.413c8.058 0 14.59 6.532 14.59 14.59s-6.532 14.59-14.59 14.59c-8.058 0-14.59-6.532-14.59-14.59 0-0.001 0-0.001 0-0.002v0c0-8.057 6.531-14.588 14.588-14.588 0.001 0 0.001 0 0.002 0h-0zM16 0c-8.837 0-16 7.163-16 16s7.163 16 16 16c8.836 0 15.999-7.163 16-15.998v-0c-0.009-8.833-7.167-15.991-15.999-16.002h-0.001zM21.959 21.965c-0 0-0.001 0-0.002 0-0.977 0-1.769-0.792-1.769-1.769s0.792-1.769 1.769-1.769c0.977 0 1.769 0.792 1.769 1.769v0c-0.001 0.976-0.791 1.767-1.767 1.769h-0zM10.137 21.965c-0.001 0-0.002 0-0.003 0-0.977 0-1.769-0.792-1.769-1.769s0.792-1.769 1.769-1.769c0.977 0 1.769 0.792 1.769 1.769v0c-0.001 0.975-0.79 1.766-1.765 1.769h-0zM27.782 15.889c-0.032-0.108-0.151-0.414-0.269-0.679l-0.971-2.223c-0.098-0.237-0.21-0.44-0.341-0.63l0.007 0.011c-0.068-0.075-0.516-0.164-0.805-0.184l-3.367-0.235c-0.289-0.021-0.543-0.036-0.566-0.035-0.011 0.001-0.025 0.001-0.038 0.001s-0.027-0-0.040-0.001l0.002 0s-0.236-0.009-0.527-0.009h-16.179c-0.291 0-0.527 0.236-0.527 0.527v0 6.614c0 0.132 0.020 0.259 0.057 0.38l-0.002-0.009c0.033 0.090 0.435 0.301 0.707 0.393l0.265 0.093c0.274 0.096 0.589 0.196 0.698 0.223s0.358 0.051 0.358 0.056 0.238 0.009 0.527 0.009h1.033c0-1.285 1.042-2.327 2.327-2.327s2.327 1.042 2.327 2.327h7.168c-0-0.018-0.001-0.038-0.001-0.059 0-1.286 1.043-2.328 2.328-2.328s2.328 1.043 2.328 2.328c0 0.021-0 0.042-0.001 0.062l0-0.003h2.602c0.036 0 0.151-0.012 0.268-0.029 0.15-0.032 0.28-0.073 0.404-0.125l-0.016 0.006c0.064-0.046 0.12-0.095 0.171-0.15l0.001-0.001c0.072-0.069 0.129-0.522 0.129-0.813v-2.309c0-0.018 0-0.040 0-0.062 0-0.289-0.021-0.574-0.061-0.852l0.004 0.032zM10.548 15.527c0 0.291-0.236 0.527-0.527 0.527v0h-4.327c-0.291-0.001-0.526-0.236-0.527-0.527v-1.882c0.002-0.29 0.237-0.525 0.527-0.527h4.328c0.291 0.001 0.526 0.236 0.527 0.527v0zM16.546 15.527c-0.001 0.291-0.236 0.526-0.527 0.527h-4.327c-0.291 0-0.527-0.236-0.527-0.527v0-1.881c0.001-0.291 0.236-0.526 0.527-0.527h4.327c0.29 0.002 0.525 0.237 0.527 0.527v0zM22.544 15.527c-0.001 0.291-0.236 0.526-0.527 0.527h-4.327c-0.291 0-0.527-0.236-0.527-0.527v0-1.881c0.001-0.291 0.236-0.526 0.527-0.527h4.327c0.29 0.002 0.525 0.237 0.527 0.527v0zM26.499 16h-2.81c-0.291-0.001-0.526-0.236-0.527-0.527v-1.827c0.001-0.291 0.236-0.526 0.527-0.527h1.731c0.319 0.016 0.588 0.212 0.71 0.488l0.002 0.005 0.709 1.89c0.024 0.046 0.038 0.1 0.038 0.157 0 0.189-0.153 0.342-0.342 0.342-0.014 0-0.027-0.001-0.040-0.002l0.002 0z"></path>
</svg>
