<!-- Generated by IcoMoon.io -->
<svg version="1.1" xmlns="http://www.w3.org/2000/svg" width="32" height="32" viewBox="0 0 32 32">
<path d="M11.692 13.119h4.327c0.291 0 0.527 0.236 0.527 0.527v1.881c0 0.291-0.236 0.527-0.527 0.527h-4.327c-0.291 0-0.527-0.236-0.527-0.527v-1.881c0-0.291 0.236-0.527 0.527-0.527zM5.694 13.119h4.327c0.291 0 0.527 0.236 0.527 0.527v1.881c0 0.291-0.236 0.527-0.527 0.527h-4.327c-0.291 0-0.527-0.236-0.527-0.527v-1.881c0-0.291 0.236-0.527 0.527-0.527zM26.131 13.613c-0.124-0.281-0.393-0.477-0.71-0.494l-0.002-0h-1.731c-0.291 0.001-0.526 0.236-0.527 0.527v1.827c0.001 0.291 0.236 0.526 0.527 0.527h2.81c0.011 0.001 0.024 0.002 0.037 0.002 0.189 0 0.342-0.153 0.342-0.342 0-0.056-0.014-0.109-0.038-0.156l0.001 0.002zM17.69 13.119h4.327c0.291 0 0.527 0.236 0.527 0.527v1.881c0 0.291-0.236 0.527-0.527 0.527h-4.327c-0.291 0-0.527-0.236-0.527-0.527v-1.881c0-0.291 0.236-0.527 0.527-0.527zM15.998 0c-8.836 0.001-15.998 7.164-15.998 16s7.163 16 16 16 16-7.163 16-16v0c-0.010-8.833-7.168-15.991-16.001-16h-0.001zM10.136 21.965c-0 0-0.001 0-0.002 0-0.977 0-1.769-0.792-1.769-1.769s0.792-1.769 1.769-1.769c0.977 0 1.769 0.792 1.769 1.769v0c-0.001 0.976-0.791 1.767-1.767 1.769h-0zM21.959 21.965c-0 0-0.001 0-0.002 0-0.977 0-1.769-0.792-1.769-1.769s0.792-1.769 1.769-1.769c0.977 0 1.769 0.792 1.769 1.769v0c-0.001 0.976-0.791 1.767-1.767 1.769h-0zM27.71 19.9c-0.052 0.055-0.108 0.104-0.168 0.148l-0.003 0.002c-0.109 0.046-0.239 0.086-0.373 0.116l-0.016 0.003c-0.076 0.013-0.168 0.023-0.262 0.028l-0.007 0h-2.595c0-0.018 0.001-0.038 0.001-0.059 0-1.286-1.043-2.329-2.328-2.329s-2.328 1.043-2.328 2.328c0 0.021 0 0.042 0.001 0.062l-0-0.003h-7.168c0-1.285-1.042-2.327-2.327-2.327s-2.327 1.042-2.327 2.327h-1.036c-0.289 0-0.527 0-0.527-0.009s-0.248-0.030-0.358-0.057-0.424-0.126-0.698-0.221l-0.265-0.093c-0.272-0.096-0.674-0.301-0.707-0.393-0.036-0.11-0.059-0.237-0.062-0.369l-0-0.002v-6.615c0.001-0.291 0.236-0.526 0.527-0.527h16.181c0.291 0 0.527 0 0.527 0.009 0.011 0.001 0.025 0.001 0.038 0.001s0.027-0 0.040-0.001l-0.002 0c0.023 0 0.277 0.014 0.566 0.035l3.37 0.236c0.289 0.020 0.738 0.108 0.805 0.184 0.123 0.178 0.235 0.382 0.326 0.596l0.008 0.022 0.971 2.208c0.116 0.266 0.238 0.572 0.269 0.68 0.037 0.246 0.058 0.531 0.058 0.82 0 0.021-0 0.043-0 0.064l0-0.003v2.318c0.006 0.295-0.057 0.748-0.129 0.819z"></path>
</svg>
