<!-- Generated by IcoMoon.io -->
<svg version="1.1" xmlns="http://www.w3.org/2000/svg" width="32" height="32" viewBox="0 0 32 32">
<path d="M24.102 22.785c-1.323 0-2.395-1.072-2.395-2.395s1.072-2.395 2.395-2.395c1.32 0 2.39 1.068 2.395 2.386v0c0 0.002 0 0.004 0 0.006 0 1.323-1.072 2.396-2.395 2.397h-0zM8.094 22.785c-0.001 0-0.001 0-0.002 0-1.323 0-2.395-1.072-2.395-2.395s1.072-2.395 2.395-2.395c1.32 0 2.39 1.068 2.395 2.386v0c0 0.002 0 0.004 0 0.006 0 1.322-1.071 2.395-2.393 2.397h-0zM32 14.557c-0.045-0.147-0.204-0.56-0.365-0.921l-1.327-3.008c-0.133-0.323-0.284-0.601-0.461-0.86l0.010 0.016c-0.092-0.102-0.701-0.222-1.092-0.249l-4.557-0.312c-0.391-0.029-0.738-0.051-0.768-0.051-0.015 0.001-0.033 0.002-0.051 0.002s-0.036-0.001-0.053-0.002l0.002 0s-0.322 0-0.713 0h-21.911c-0.394 0-0.713 0.319-0.713 0.713v0 8.956c0.003 0.18 0.033 0.352 0.087 0.513l-0.003-0.012c0.045 0.122 0.587 0.408 0.958 0.532l0.359 0.126c0.369 0.13 0.795 0.265 0.944 0.302s0.487 0.069 0.487 0.075 0.32 0.012 0.713 0.012h1.396c-0.001-0.024-0.001-0.052-0.001-0.080 0-1.741 1.412-3.153 3.153-3.153s3.153 1.412 3.153 3.153c0 0.028-0 0.056-0.001 0.084l0-0.004h9.706c0-1.74 1.411-3.151 3.151-3.151s3.151 1.411 3.151 3.151v0h3.524c0.049 0 0.204-0.016 0.365-0.039 0.202-0.044 0.377-0.1 0.545-0.169l-0.022 0.008c0.088-0.062 0.164-0.129 0.234-0.203l0.001-0.001c0.096-0.094 0.175-0.707 0.175-1.101v-3.135c0-0.029 0.001-0.063 0.001-0.097 0-0.387-0.028-0.768-0.081-1.14l0.005 0.043zM8.652 14.064c-0.001 0.394-0.32 0.712-0.713 0.713h-5.86c-0.394 0-0.713-0.319-0.713-0.713v0-2.544c0-0.001 0-0.001 0-0.002 0-0.394 0.319-0.714 0.713-0.715h5.87c0.393 0.002 0.711 0.32 0.713 0.713v0zM16.772 14.064c0 0.394-0.319 0.713-0.713 0.713v0h-5.868c-0.394-0.001-0.712-0.32-0.713-0.713v-2.544c0 0 0 0 0 0 0-0.395 0.319-0.715 0.713-0.717h5.868c0.394 0.001 0.712 0.32 0.713 0.713v0zM24.895 14.064c0 0.394-0.319 0.713-0.713 0.713v0h-5.86c-0.394-0.001-0.712-0.32-0.713-0.713v-2.544c0 0 0 0 0 0 0-0.395 0.319-0.715 0.713-0.717h5.86c0.394 0.001 0.712 0.32 0.713 0.713v0zM30.249 14.704h-3.805c-0.394-0.001-0.712-0.32-0.713-0.713v-2.47c0.001-0.394 0.32-0.712 0.713-0.713h2.346c0.434 0.020 0.8 0.286 0.965 0.661l0.003 0.007 0.962 2.564c0.032 0.061 0.050 0.133 0.050 0.21 0 0.256-0.207 0.463-0.463 0.463-0.021 0-0.041-0.001-0.061-0.004l0.002 0z"></path>
</svg>
