<!-- Generated by IcoMoon.io -->
<svg version="1.1" xmlns="http://www.w3.org/2000/svg" width="32" height="32" viewBox="0 0 32 32">
<path d="M9.726 28.164c0.21-0.231 0.504-0.381 0.833-0.403l0.004-0h0.701c0.015-0.003 0.033-0.005 0.051-0.005 0.161 0 0.291 0.13 0.291 0.291 0 0.066-0.022 0.128-0.060 0.177l0.001-0.001-1.732 3.369c-0.157 0.264-0.433 0.443-0.752 0.462l-0.003 0h-1.974c-0.287 0-0.372-0.182-0.192-0.404zM22.233 28.164c-0.21-0.231-0.504-0.381-0.833-0.403l-0.004-0h-0.715c-0.016-0.003-0.035-0.005-0.053-0.005-0.162 0-0.293 0.131-0.293 0.293 0 0.066 0.022 0.126 0.058 0.175l-0.001-0.001 1.732 3.369c0.157 0.264 0.433 0.443 0.752 0.462l0.003 0h1.979c0.287 0 0.372-0.182 0.192-0.404zM22.448 6.526h-5.798v-1.186c0.001-0.286 0.233-0.518 0.519-0.519h1.588c0.317-0.017 0.587-0.203 0.721-0.47l0.002-0.005 1.148-2.654c0.137-0.272 0.408-0.46 0.724-0.477l0.002-0h0.341c0.286-0.001 0.517-0.233 0.519-0.519v-0.178c-0.001-0.286-0.233-0.517-0.519-0.519h-11.307c-0.286 0.001-0.518 0.233-0.519 0.519v0.178c0.001 0.286 0.233 0.517 0.519 0.519h0.174c0.317 0.018 0.587 0.205 0.721 0.472l0.002 0.005 1.146 2.652c0.136 0.272 0.406 0.46 0.722 0.477l0.002 0h1.759c0.286 0.001 0.518 0.233 0.519 0.519v1.186h-5.796c-1.362 0-2.464 1.255-2.464 2.784v14.85c0 1.537 1.102 2.788 2.464 2.788h12.81c1.357 0 2.462-1.255 2.462-2.788v-14.85c0-1.537-1.104-2.784-2.462-2.784zM13.909 3.606c-0.316-0.012-0.587-0.197-0.719-0.464l-0.002-0.005-0.592-1.443c-0.027-0.046-0.042-0.101-0.042-0.159 0-0.178 0.144-0.322 0.322-0.322 0.014 0 0.028 0.001 0.042 0.003l-0.002-0h6.086c0.012-0.002 0.026-0.002 0.040-0.002 0.178 0 0.322 0.144 0.322 0.322 0 0.059-0.016 0.114-0.043 0.161l0.001-0.002-0.602 1.443c-0.131 0.274-0.401 0.464-0.715 0.479l-0.002 0zM11.995 7.709h7.822c0.378 0 0.684 0.306 0.684 0.684s-0.306 0.684-0.684 0.684h-7.822c-0.378 0-0.684-0.306-0.684-0.684s0.306-0.684 0.684-0.684v0zM9.41 20.821c-0-0.012-0.001-0.026-0.001-0.040 0-0.605 0.48-1.099 1.080-1.12l0.002-0c0.601 0.053 1.068 0.553 1.068 1.163s-0.468 1.11-1.064 1.163l-0.004 0c-0.603-0.025-1.082-0.52-1.082-1.126 0-0.014 0-0.027 0.001-0.041l-0 0.002zM20.534 24.282c-2.669 0.571-6.502 0.571-9.167 0-0.964-0.209-1.673-0.696-1.596-0.973 0-0.017 0.038-0.023 0.048-0.038 0.102-0.259 0.805-0.46 1.661-0.46h8.939c0.853 0 1.558 0.209 1.673 0.46 0 0.015 0.040 0.021 0.044 0.038 0.069 0.276-0.64 0.765-1.602 0.973zM21.409 21.982c-0.027 0.002-0.058 0.003-0.090 0.003-0.643 0-1.165-0.522-1.165-1.165s0.522-1.165 1.165-1.165c0.643 0 1.165 0.522 1.165 1.165 0 0 0 0 0 0.001v-0c0.001 0.013 0.001 0.028 0.001 0.043 0 0.604-0.476 1.096-1.073 1.122l-0.002 0zM23.186 16.753c0 0.462-0.375 0.837-0.837 0.837v0h-12.758c-0.458-0.006-0.826-0.378-0.826-0.837 0-0 0-0 0-0v0-5.693c0-0 0-0 0-0 0-0.458 0.369-0.831 0.826-0.837h12.767c0.462 0 0.837 0.375 0.837 0.837v0z"></path>
</svg>
