<!-- Generated by IcoMoon.io -->
<svg version="1.1" xmlns="http://www.w3.org/2000/svg" width="32" height="32" viewBox="0 0 32 32">
<path d="M20.594 17.132c0.332 0 0.602-0.27 0.602-0.602v0-4.105c0-0.332-0.27-0.602-0.602-0.602v0h-9.182c-0.332 0-0.602 0.27-0.602 0.602v0 4.106c0 0.332 0.27 0.602 0.602 0.602v0zM13.137 10.998h5.628c0.272 0 0.492-0.22 0.492-0.492s-0.22-0.492-0.492-0.492v0h-5.628c-0.272 0-0.492 0.22-0.492 0.492s0.22 0.492 0.492 0.492v0zM12.832 19.45c-0.031-0.405-0.368-0.721-0.777-0.721-0.431 0-0.78 0.349-0.78 0.78s0.349 0.779 0.779 0.78h0c0.433-0.015 0.779-0.371 0.779-0.806 0-0.011-0-0.023-0.001-0.034l0 0.002zM17.982 6.716l0.426-1.031c0.019-0.033 0.030-0.072 0.030-0.115 0-0.128-0.104-0.232-0.232-0.232-0.010 0-0.020 0.001-0.030 0.002l0.001-0h-4.38c-0.009-0.001-0.019-0.002-0.029-0.002-0.128 0-0.232 0.104-0.232 0.232 0 0.042 0.011 0.082 0.031 0.116l-0.001-0.001 0.43 1.031c0.095 0.197 0.288 0.334 0.515 0.345l0.001 0h2.946c0.23-0.009 0.427-0.146 0.521-0.341l0.002-0.004zM20.395 21.214c-0.075-0.185-0.582-0.33-1.195-0.33h-6.433c-0.616 0-1.121 0.143-1.197 0.33 0 0.011-0.029 0.015-0.035 0.027-0.056 0.199 0.452 0.551 1.148 0.7 1.919 0.412 4.678 0.412 6.597 0 0.694-0.151 1.204-0.501 1.147-0.7-0.003-0.018-0.026-0.018-0.033-0.027zM16 0c-8.837 0-16 7.163-16 16s7.163 16 16 16c8.837 0 16-7.163 16-16v0c-0.011-8.832-7.168-15.989-15.999-16h-0.001zM12.817 24.777l-1.246 2.425c-0.113 0.191-0.312 0.32-0.543 0.333l-0.002 0h-1.424c-0.205 0-0.268-0.131-0.138-0.291l2.037-2.509c0.151-0.166 0.362-0.274 0.599-0.29l0.003-0h0.512c0.010-0.002 0.021-0.003 0.033-0.003 0.116 0 0.211 0.094 0.211 0.211 0 0.047-0.015 0.090-0.041 0.125l0-0.001zM11.439 23.862c-0.981 0-1.773-0.903-1.773-2.006v-10.687c0-1.106 0.792-2.003 1.773-2.003h4.171v-0.856c-0.001-0.206-0.167-0.372-0.373-0.373h-1.264c-0.228-0.012-0.422-0.146-0.519-0.338l-0.002-0.004-0.825-1.91c-0.099-0.196-0.293-0.331-0.521-0.343l-0.002-0h-0.123c-0.206 0-0.373-0.167-0.373-0.373v0-0.128c0.001-0.206 0.167-0.372 0.373-0.373h8.136c0.206 0.001 0.372 0.167 0.373 0.373v0.128c0 0.206-0.167 0.373-0.373 0.373v0h-0.248c-0.228 0.013-0.422 0.147-0.519 0.34l-0.002 0.004-0.826 1.91c-0.099 0.196-0.294 0.33-0.521 0.342l-0.001 0h-1.141c-0.206 0.001-0.372 0.167-0.373 0.373v0.854h4.172c0.977 0 1.772 0.903 1.772 2.003v10.687c0 1.106-0.795 2.006-1.772 2.006zM22.397 27.534h-1.425c-0.232-0.013-0.431-0.142-0.542-0.329l-0.002-0.003-1.246-2.425c-0.025-0.034-0.041-0.078-0.041-0.125 0-0.116 0.094-0.211 0.211-0.211 0.012 0 0.023 0.001 0.034 0.003l-0.001-0h0.509c0.24 0.015 0.451 0.124 0.601 0.29l0.001 0.001 2.041 2.509c0.129 0.16 0.066 0.291-0.138 0.291zM19.912 18.614c-0.019-0.002-0.041-0.002-0.063-0.002-0.464 0-0.84 0.376-0.84 0.84s0.376 0.84 0.84 0.84c0.464 0 0.84-0.376 0.84-0.84 0-0.001 0-0.002 0-0.002v0c0-0.009 0.001-0.020 0.001-0.031 0-0.435-0.345-0.789-0.776-0.805l-0.001-0z"></path>
</svg>
