<!-- Generated by IcoMoon.io -->
<svg version="1.1" xmlns="http://www.w3.org/2000/svg" width="32" height="32" viewBox="0 0 32 32">
<path d="M11.5 24.735c0.151-0.166 0.362-0.274 0.599-0.29l0.003-0h0.512c0.010-0.002 0.021-0.003 0.033-0.003 0.116 0 0.211 0.094 0.211 0.211 0 0.047-0.015 0.090-0.041 0.125l0-0.001-1.246 2.425c-0.113 0.191-0.312 0.32-0.543 0.333l-0.002 0h-1.424c-0.205 0-0.268-0.131-0.138-0.291zM20.503 24.735c-0.151-0.166-0.362-0.275-0.599-0.29l-0.003-0h-0.515c-0.010-0.002-0.021-0.003-0.033-0.003-0.116 0-0.211 0.094-0.211 0.211 0 0.047 0.015 0.090 0.041 0.125l-0-0.001 1.246 2.425c0.112 0.191 0.311 0.32 0.542 0.333l0.002 0h1.425c0.205 0 0.268-0.131 0.138-0.291zM20.659 9.162h-4.172v-0.853c0.001-0.205 0.167-0.372 0.372-0.373h1.143c0.229-0.012 0.423-0.146 0.521-0.338l0.002-0.004 0.825-1.91c0.099-0.195 0.293-0.33 0.519-0.343l0.002-0h0.245c0.001 0 0.002 0 0.003 0 0.206 0 0.373-0.167 0.373-0.373 0 0 0 0 0 0v0-0.128c-0.001-0.206-0.167-0.372-0.373-0.373h-8.136c-0.206 0.001-0.372 0.167-0.373 0.373v0.128c0 0.206 0.167 0.373 0.373 0.373v0h0.123c0.229 0.012 0.424 0.147 0.521 0.34l0.002 0.004 0.825 1.91c0.098 0.195 0.293 0.33 0.519 0.342l0.002 0h1.266c0.206 0.001 0.372 0.167 0.373 0.373v0.854h-4.172c-0.981 0-1.773 0.903-1.773 2.003v10.687c0 1.106 0.792 2.006 1.773 2.006h9.218c0.977 0 1.772-0.903 1.772-2.006v-10.687c-0.002-1.106-0.793-2.003-1.77-2.003zM14.51 7.055c-0.225-0.012-0.416-0.145-0.51-0.335l-0.002-0.004-0.426-1.031c-0.019-0.033-0.030-0.072-0.030-0.115 0-0.128 0.104-0.232 0.232-0.232 0.010 0 0.020 0.001 0.030 0.002l-0.001-0h4.38c0.009-0.001 0.019-0.002 0.029-0.002 0.128 0 0.232 0.104 0.232 0.232 0 0.042-0.011 0.082-0.031 0.116l0.001-0.001-0.426 1.031c-0.096 0.2-0.295 0.338-0.526 0.345l-0.001 0zM13.137 10.014h5.628c0.272 0 0.492 0.22 0.492 0.492s-0.22 0.492-0.492 0.492v0h-5.628c-0.272 0-0.492-0.22-0.492-0.492s0.22-0.492 0.492-0.492v0zM11.277 19.45c0.031-0.405 0.368-0.721 0.777-0.721 0.431 0 0.78 0.349 0.78 0.78s-0.349 0.78-0.78 0.78c-0 0-0.001 0-0.001 0h0c-0.433-0.016-0.777-0.371-0.777-0.806 0-0.011 0-0.023 0.001-0.034l-0 0.002zM19.281 21.941c-1.919 0.412-4.678 0.412-6.597 0-0.694-0.151-1.204-0.501-1.148-0.7 0-0.012 0.027-0.017 0.035-0.027 0.075-0.187 0.581-0.33 1.195-0.33h6.435c0.613 0 1.12 0.151 1.195 0.33 0.008 0.011 0.030 0.015 0.033 0.027 0.056 0.199-0.453 0.551-1.147 0.7zM19.912 20.285c-0.019 0.002-0.041 0.002-0.063 0.002-0.464 0-0.84-0.376-0.84-0.84s0.376-0.84 0.84-0.84c0.464 0 0.839 0.376 0.84 0.839v0c0 0.010 0.001 0.021 0.001 0.032 0 0.436-0.344 0.791-0.776 0.809l-0.002 0zM21.191 16.522c0 0.332-0.27 0.602-0.602 0.602v0h-9.182c-0.332 0-0.602-0.27-0.602-0.602v0-4.097c0-0.332 0.27-0.602 0.602-0.602v0h9.189c0.332 0 0.602 0.27 0.602 0.602v0zM16 1.413c8.056 0.002 14.585 6.532 14.585 14.588 0 8.057-6.531 14.588-14.588 14.588s-14.588-6.531-14.588-14.588c0-0.001 0-0.001 0-0.002v0c0-8.056 6.531-14.587 14.587-14.587 0.002 0 0.003 0 0.005 0h-0zM16 0c-8.837 0-16 7.163-16 16s7.163 16 16 16c8.837 0 16-7.163 16-16v0c-0.011-8.832-7.168-15.989-15.999-16h-0.001z"></path>
</svg>
