<!-- Generated by IcoMoon.io -->
<svg version="1.1" xmlns="http://www.w3.org/2000/svg" width="32" height="32" viewBox="0 0 32 32">
<path d="M9.333 15.293v5.569c0.011 0.518 0.433 0.933 0.953 0.933 0.006 0 0.013-0 0.019-0h4.986v-7.436h-4.982c-0.007-0-0.015-0-0.023-0-0.519 0-0.942 0.416-0.953 0.933l-0 0.001zM16.001 0c-0 0-0.001 0-0.002 0-8.837 0-16.001 7.164-16.001 16.001s7.164 16.001 16.001 16.001c8.836 0 16-7.163 16.001-15.999v-0c-0.009-8.833-7.166-15.992-15.998-16.002h-0.001zM19.814 10.562h2.765c0.007-0 0.016-0 0.024-0 0.803 0 1.456 0.644 1.469 1.444l0 0.001v12.795c-0.014 0.8-0.666 1.442-1.467 1.442-0.009 0-0.018-0-0.027-0l0.001 0h-0.497v1.329c-0.001 0.198-0.161 0.357-0.358 0.358h-1.18c-0.197-0.001-0.357-0.161-0.357-0.358 0 0 0 0 0 0v0-1.329h-8.405v1.329c0 0 0 0 0 0 0 0.197-0.16 0.357-0.357 0.358h-1.18c-0.197-0.001-0.357-0.161-0.358-0.358v-1.329h-0.536c-0.006 0-0.014 0-0.021 0-0.802 0-1.453-0.643-1.467-1.441l-0-0.001v-12.795c0.013-0.801 0.665-1.445 1.467-1.445 0.007 0 0.015 0 0.022 0h3.262l7.3-7.269c0.071-0.064 0.166-0.103 0.27-0.103 0.12 0 0.227 0.052 0.301 0.135l0 0c0.161 0.158 0.301 0.384 0.14 0.543l-6.7 6.694h3.149l6.28-6.256c0.072-0.064 0.167-0.104 0.272-0.104 0.12 0 0.228 0.052 0.303 0.135l0 0c0.16 0.158 0.301 0.384 0.137 0.542l-5.675 5.682zM13.079 23.849c-0.13-0.247-0.379-0.416-0.669-0.432l-0.002-0h-2.606c-0.26 0.003-0.47 0.215-0.47 0.476 0 0 0 0 0 0v0 0.863c0.001 0.262 0.213 0.475 0.476 0.476h3.426c0.012 0.002 0.026 0.003 0.040 0.003 0.156 0 0.283-0.127 0.283-0.283 0-0.056-0.016-0.109-0.045-0.153l0.001 0.001zM22.145 23.417h-2.607c-0.292 0.016-0.541 0.185-0.669 0.428l-0.002 0.004-0.432 0.95c-0.028 0.043-0.044 0.095-0.044 0.152 0 0.156 0.127 0.283 0.283 0.283 0.013 0 0.027-0.001 0.040-0.003l-0.002 0h3.432c0.262-0.001 0.475-0.213 0.476-0.476v-0.863c0 0 0 0 0 0 0-0.262-0.212-0.475-0.474-0.476h-0zM21.627 14.36h-4.919v7.433h4.921c0.006 0 0.013 0 0.020 0 0.519 0 0.942-0.416 0.953-0.932l0-0.001v-5.569c-0.013-0.517-0.435-0.93-0.954-0.93-0.007 0-0.014 0-0.021 0l0.001-0zM17.298 11.848h-7.507c-0.262 0.001-0.473 0.213-0.474 0.474v0.525c0.001 0.262 0.213 0.473 0.474 0.474h12.336c0.262-0.001 0.473-0.213 0.474-0.474v-0.525c-0.001-0.262-0.213-0.473-0.474-0.474h-4.817z"></path>
</svg>
