<!-- Generated by IcoMoon.io -->
<svg version="1.1" xmlns="http://www.w3.org/2000/svg" width="32" height="32" viewBox="0 0 32 32">
<path d="M16.001 1.412c8.057 0.001 14.587 6.532 14.587 14.589s-6.532 14.589-14.589 14.589-14.589-6.532-14.589-14.589v0c0.001-8.057 6.533-14.589 14.59-14.589v0zM16.001 0c-0 0-0.001 0-0.002 0-8.837 0-16.001 7.164-16.001 16.001s7.164 16.001 16.001 16.001c8.837 0 16.001-7.164 16.001-16.001v0c-0.011-8.832-7.167-15.989-15.998-16.001h-0.001zM22.579 10.562h-4.186l5.675-5.682c0.161-0.158 0.023-0.384-0.137-0.542-0.075-0.083-0.183-0.135-0.303-0.135-0.105 0-0.2 0.039-0.272 0.104l0-0-6.28 6.256h-3.149l6.695-6.694c0.161-0.16 0.023-0.385-0.138-0.543-0.074-0.083-0.182-0.135-0.302-0.135-0.104 0-0.199 0.039-0.271 0.104l0-0-7.297 7.269h-3.263c-0.006-0-0.014-0-0.021-0-0.803 0-1.455 0.644-1.467 1.444v12.796c0.014 0.8 0.666 1.442 1.467 1.442 0.008 0 0.015-0 0.022-0h0.535v1.329c0.001 0.198 0.161 0.357 0.358 0.358h1.18c0.197-0.001 0.357-0.161 0.357-0.358 0 0 0 0 0 0v0-1.329h8.405v1.329c0 0 0 0 0 0 0 0.197 0.16 0.357 0.357 0.358h1.18c0.198-0.001 0.357-0.161 0.358-0.358v-1.329h0.497c0.008 0 0.017 0 0.026 0 0.802 0 1.453-0.643 1.467-1.441l0-0.001v-12.795c-0.013-0.801-0.666-1.445-1.469-1.445-0.009 0-0.017 0-0.026 0l0.001-0zM9.317 12.322c0.001-0.262 0.213-0.473 0.474-0.474h12.336c0.262 0.001 0.473 0.213 0.474 0.474v0.525c-0.001 0.262-0.213 0.473-0.474 0.474h-12.336c-0.262-0.001-0.473-0.213-0.474-0.474v-0zM13.231 25.231h-3.427c-0.26-0.003-0.47-0.215-0.471-0.476v-0.863c0 0 0 0 0 0 0-0.262 0.212-0.475 0.474-0.476h2.601c0.292 0.016 0.541 0.185 0.669 0.428l0.002 0.004 0.434 0.95c0.028 0.043 0.044 0.095 0.044 0.152 0 0.156-0.127 0.283-0.283 0.283-0.014 0-0.028-0.001-0.041-0.003l0.002 0zM15.292 21.793h-4.984c-0.005 0-0.012 0-0.018 0-0.519 0-0.942-0.416-0.953-0.932l-0-0.001v-5.569c0.011-0.518 0.433-0.933 0.953-0.933 0.006 0 0.013 0 0.019 0h4.986zM16.704 21.793v-7.433h4.921c0.005-0 0.012-0 0.018-0 0.52 0 0.942 0.415 0.954 0.932l0 0.001v5.569c-0.011 0.518-0.433 0.933-0.953 0.933-0.007 0-0.014-0-0.021-0l0.001 0h-4.916zM22.616 24.755c-0.001 0.262-0.213 0.475-0.476 0.476h-3.432c-0.011 0.002-0.025 0.003-0.038 0.003-0.156 0-0.283-0.127-0.283-0.283 0-0.056 0.016-0.109 0.045-0.153l-0.001 0.001 0.433-0.95c0.13-0.247 0.378-0.416 0.668-0.432l0.002-0h2.607c0.262 0.001 0.474 0.213 0.474 0.476 0 0 0 0 0 0v0z"></path>
</svg>
