<!-- Generated by IcoMoon.io -->
<svg version="1.1" xmlns="http://www.w3.org/2000/svg" width="32" height="32" viewBox="0 0 32 32">
<path d="M15.478 8.458h-4.502c-0.407 0.011-0.732 0.344-0.732 0.752 0 0.009 0 0.018 0 0.027l-0-0.001 0.631 5.080c0 0.786 0.956 1.011 1.355 1.011h3.242zM10.741 7.43h10.332c0.008 0 0.018 0.001 0.027 0.001 0.272 0 0.492-0.22 0.492-0.492s-0.22-0.492-0.492-0.492c-0.010 0-0.019 0-0.029 0.001l0.001-0h-10.332c-0.008-0-0.018-0.001-0.027-0.001-0.272 0-0.492 0.22-0.492 0.492s0.22 0.492 0.492 0.492c0.010 0 0.019-0 0.028-0.001l-0.001 0zM15.998 0c-8.837 0-16 7.163-16 16s7.163 16 16 16c8.836 0 15.999-7.163 16-15.998v-0c-0.010-8.833-7.167-15.99-15.999-16.002h-0.001zM12.263 23.274l-1.465 2.86c-0.112 0.191-0.311 0.32-0.542 0.333l-0.002 0h-1.729c-0.205 0-0.266-0.131-0.138-0.291l2.384-2.94c0.151-0.166 0.363-0.273 0.599-0.289l0.003-0h0.679c0.012-0.003 0.026-0.004 0.040-0.004 0.116 0 0.209 0.094 0.209 0.209 0 0.046-0.015 0.088-0.039 0.122l0-0.001zM11.197 22.277c-1.261 0-2.283-1.022-2.283-2.283 0-0.001 0-0.001 0-0.002v0-12.165c0-0.002 0-0.004 0-0.006 0-1.261 1.022-2.283 2.283-2.283 0 0 0 0 0 0h9.608c1.259 0.003 2.279 1.024 2.279 2.283 0 0.002 0 0.004 0 0.006v-0 12.172c-0.003 1.257-1.022 2.275-2.279 2.277h-0zM23.472 26.461h-1.726c-0.232-0.013-0.431-0.142-0.542-0.329l-0.002-0.003-1.466-2.86c-0.026-0.034-0.041-0.078-0.041-0.125 0-0.116 0.094-0.209 0.209-0.209 0.012 0 0.025 0.001 0.037 0.003l-0.001-0h0.682c0.24 0.015 0.451 0.124 0.601 0.29l0.001 0.001 2.381 2.938c0.135 0.166 0.072 0.297-0.132 0.297zM18.879 17.499h-5.951c-0.273 0.001-0.494 0.222-0.495 0.495v0.932c0.003 0.271 0.224 0.49 0.495 0.491h5.952c0 0 0 0 0 0 0.274 0 0.496-0.222 0.497-0.495v-0.932c-0.003-0.272-0.224-0.491-0.497-0.491 0 0-0 0-0 0v0zM14.576 19.214c-0.416 0-0.753-0.337-0.753-0.753s0.337-0.753 0.753-0.753c0.416 0 0.753 0.337 0.753 0.753v0c0 0.416-0.337 0.753-0.753 0.753v0zM17.419 19.214c-0.416 0-0.753-0.337-0.753-0.753s0.337-0.753 0.753-0.753c0.416 0 0.753 0.337 0.753 0.753v0c0 0.416-0.337 0.753-0.753 0.753v0zM21.565 9.236c0-0.008 0-0.017 0-0.026 0-0.408-0.325-0.741-0.731-0.752l-0.001-0h-4.263v6.87h3.010c0.403 0 1.355-0.108 1.355-1.011z"></path>
</svg>
