<!-- Generated by IcoMoon.io -->
<svg version="1.1" xmlns="http://www.w3.org/2000/svg" width="32" height="32" viewBox="0 0 32 32">
<path d="M16 1.415c8.054 0.003 14.582 6.532 14.582 14.587 0 8.056-6.531 14.587-14.587 14.587s-14.587-6.531-14.587-14.587v0c0-8.056 6.531-14.587 14.587-14.587 0.002 0 0.003 0 0.005 0h-0zM16 0c-8.837 0-16 7.163-16 16s7.163 16 16 16c8.836 0 15.999-7.163 16-15.998v-0c-0.010-8.833-7.167-15.99-15.999-16.002h-0.001zM8.388 26.172c-0.129 0.16-0.066 0.291 0.138 0.291h1.728c0.232-0.013 0.432-0.142 0.543-0.33l0.002-0.003 1.465-2.86c0.026-0.034 0.041-0.078 0.041-0.125 0-0.116-0.094-0.209-0.209-0.209-0.012 0-0.025 0.001-0.037 0.003l0.001-0h-0.679c-0.242 0.013-0.457 0.122-0.609 0.288l-0.001 0.001zM21.23 23.234c-0.151-0.166-0.362-0.275-0.599-0.29l-0.003-0h-0.682c-0.011-0.002-0.023-0.003-0.035-0.003-0.116 0-0.209 0.094-0.209 0.209 0 0.047 0.016 0.090 0.042 0.125l-0-0.001 1.465 2.86c0.113 0.191 0.312 0.32 0.543 0.333l0.002 0h1.728c0.205 0 0.268-0.131 0.138-0.291zM14.578 17.707c-0.416 0-0.753 0.337-0.753 0.753s0.337 0.753 0.753 0.753c0.416 0 0.753-0.337 0.753-0.753v0c0-0.416-0.337-0.753-0.753-0.753v0zM17.421 17.707c-0.416 0-0.753 0.337-0.753 0.753s0.337 0.753 0.753 0.753c0.416 0 0.753-0.337 0.753-0.753v0c0-0.416-0.337-0.753-0.753-0.753v0zM11.197 22.277h9.609c1.259-0.003 2.279-1.024 2.279-2.283 0-0.001 0-0.001 0-0.002v0-12.165c0 0 0 0 0 0 0-1.259-1.020-2.281-2.279-2.283h-9.609c-1.26 0.001-2.282 1.023-2.282 2.283v0 12.172c0.003 1.258 1.024 2.276 2.282 2.277h0zM19.378 18.925c-0.002 0.273-0.223 0.494-0.497 0.495h-5.952c-0.273-0.001-0.494-0.222-0.495-0.495v-0.932c0.001-0.273 0.222-0.494 0.495-0.495h5.952c0.273 0.001 0.495 0.222 0.497 0.495v0zM20.935 14.314c0 0.903-0.954 1.011-1.355 1.011h-3.010v-6.868h4.263c0.407 0.011 0.732 0.344 0.732 0.752 0 0.009-0 0.018-0 0.027l0-0.001zM10.741 6.447h10.332c0.008-0 0.018-0.001 0.027-0.001 0.272 0 0.492 0.22 0.492 0.492s-0.22 0.492-0.492 0.492c-0.010 0-0.019-0-0.029-0.001l0.001 0h-10.332c-0.008 0-0.018 0.001-0.027 0.001-0.272 0-0.492-0.22-0.492-0.492s0.22-0.492 0.492-0.492c0.010 0 0.019 0 0.028 0.001l-0.001-0zM10.977 8.458h4.502v6.87h-3.244c-0.405 0-1.355-0.226-1.355-1.011l-0.635-5.080c-0-0.008-0-0.017-0-0.026 0-0.408 0.325-0.741 0.731-0.752l0.001-0z"></path>
</svg>
